<?xml version="1.0" standalone="no"?>
<!DOCTYPE svg PUBLIC "-//W3C//DTD SVG 1.1//EN" "http://www.w3.org/Graphics/SVG/1.1/DTD/svg11.dtd" >
<svg xmlns="http://www.w3.org/2000/svg">
<metadata>
This is a custom SVG webfont generated by Font Squirrel.
Copyright   : Copyright c 1996 DoubleAlex Team All rights reserved
Foundry     : ParaType Inc
</metadata>
<defs>
<font id="ColiseumRegular" horiz-adv-x="1193" >
<font-face units-per-em="2048" ascent="1638" descent="-410" />
<missing-glyph horiz-adv-x="653" />
<glyph horiz-adv-x="2334" />
<glyph horiz-adv-x="2334" />
<glyph unicode=" "  horiz-adv-x="653" />
<glyph unicode="&#x09;" horiz-adv-x="653" />
<glyph unicode="&#xa0;" horiz-adv-x="653" />
<glyph unicode="!" horiz-adv-x="528" d="M143 113q0 49 35 84.5t86 35.5q49 0 84 -35.5t35 -84.5q0 -51 -35 -87t-86 -36q-49 0 -84 36t-35 87zM180 428v1206h174v-1206h-174z" />
<glyph unicode="&#x22;" horiz-adv-x="774" d="M123 1673h174l-49 -610h-78zM467 1673h170l-51 -610h-74z" />
<glyph unicode="#" horiz-adv-x="1470" d="M43 588v147h406l24 203h-385v156h408l73 553h168l-80 -553h211l70 553h164l-78 -553h389v-156h-409l-25 -203h387v-147h-410l-77 -600h-168l88 600h-211l-88 -600h-156l80 600h-381zM610 735h209l27 203h-209z" />
<glyph unicode="$" d="M131 983v408q0 137 60.5 190t191.5 53h135v244h189v-244h350v-415h-178v245h-172v-544h149q111 0 163 -46.5t52 -152.5v-514q0 -102 -66.5 -154.5t-166.5 -52.5h-131v-215h-189v215h-385v432h178v-262h207v584h-178q-209 0 -209 229zM336 1008q0 -43 15.5 -65.5 t62.5 -22.5h104v544h-78q-104 0 -104 -112v-344zM707 168h75q90 0 90 117v364q0 57 -17 81t-73 24h-75v-586z" />
<glyph unicode="%" horiz-adv-x="1796" d="M143 924v481q0 143 51.5 192.5t192.5 49.5h78q166 0 215 -54.5t49 -220.5v-422q0 -164 -42 -216t-202 -52h-86q-156 0 -206 45t-50 197zM283 952q0 -98 17 -122.5t106 -24.5h57q88 0 107.5 21.5t19.5 111.5v446q0 96 -21.5 117t-122.5 21h-47q-84 0 -100 -26t-16 -126 v-418zM471 -47l735 1708h156l-746 -1708h-145zM1098 233v480q0 141 51 190t194 49h74q168 0 217 -53t49 -221v-424q0 -160 -43 -213t-200 -53h-86q-154 0 -205 46.5t-51 198.5zM1237 256q0 -96 17.5 -119.5t107.5 -23.5h55q88 0 108.5 20.5t20.5 112.5v444q0 96 -22.5 117.5 t-122.5 21.5h-47q-84 0 -100.5 -25.5t-16.5 -125.5v-422z" />
<glyph unicode="&#x26;" horiz-adv-x="1398" d="M20 498q0 41 27 86t48.5 63.5t74.5 65.5l283 237l-193 228v176q0 162 43 221t201 59h139q100 0 155.5 -13t84 -55t35 -93.5t6.5 -155.5v-197l-226 -186l287 -340l254 209l117 -135l-256 -213l305 -361l-137 -114l-305 358l-275 -238q-76 -68 -121 -93t-96 -25 q-57 -2 -95 23.5t-114 121.5l-112 135q-72 86 -101 135.5t-29 100.5zM215 487q0 -18 9 -32.5t57 -69.5l104 -129q59 -74 88 -76q27 0 109 70l266 223l-283 344l-248 -207q-12 -10 -28.5 -24.5t-24.5 -19.5t-18 -16t-14.5 -16.5t-9.5 -13.5t-6 -15.5t-1 -17.5zM430 1231 l164 -164l164 137v119q0 94 -17.5 117.5t-97.5 23.5h-94q-80 0 -99.5 -22.5t-19.5 -95.5v-115z" />
<glyph unicode="'" horiz-adv-x="464" d="M145 1673h172l-49 -610h-78z" />
<glyph unicode="(" horiz-adv-x="583" d="M131 315v934q0 174 110.5 335t231.5 188l-2 -127q-84 -47 -145.5 -157t-61.5 -239v-913q0 -131 64.5 -251t144.5 -167v-125q-121 27 -231.5 186.5t-110.5 335.5z" />
<glyph unicode=")" horiz-adv-x="583" d="M100 -207l2 125q82 47 146.5 167t64.5 251v889q0 131 -64.5 251.5t-148.5 168.5v127q121 -27 232.5 -188t111.5 -335v-934q0 -176 -111.5 -335.5t-232.5 -186.5z" />
<glyph unicode="*" horiz-adv-x="745" d="M45 1219l186 100l-186 115l70 118l190 -114v219h139v-221l193 110l70 -114l-197 -113l192 -113l-69 -112l-189 104v-221h-139v223l-194 -110z" />
<glyph unicode="+" d="M139 750v157h385v387h160v-387h385v-157h-385v-385h-160v385h-385z" />
<glyph unicode="," horiz-adv-x="464" d="M4 -336l186 567h181l-232 -567h-135z" />
<glyph unicode="-" horiz-adv-x="776" d="M96 489v160h602v-160h-602z" />
<glyph unicode="." horiz-adv-x="464" d="M117 113q0 49 34.5 84.5t86.5 35.5q49 0 83.5 -35.5t34.5 -84.5q0 -51 -34.5 -87t-85.5 -36q-49 0 -84 36t-35 87z" />
<glyph unicode="/" horiz-adv-x="776" d="M-53 -117l721 1817h131l-715 -1817h-137z" />
<glyph unicode="0" d="M133 303v1034q0 135 67.5 216t196.5 81h400q137 0 203.5 -79.5t66.5 -217.5v-1067q0 -139 -72.5 -204.5t-191.5 -65.5h-418q-119 0 -185.5 76.5t-66.5 226.5zM332 291q0 -135 102 -135h328q66 0 86 30.5t20 85.5v1094q0 53 -17 83t-69 30h-350q-61 0 -80.5 -30t-19.5 -83 v-1075z" />
<glyph unicode="1" d="M262 1085v222l365 327h127v-1464h133v-170h-473v170h141v1178z" />
<glyph unicode="2" d="M117 1114v217q0 125 64.5 214t187.5 89h385q162 0 234.5 -75.5t72.5 -223.5v-295q0 -74 -18.5 -99.5t-96.5 -78.5l-577 -395q-45 -31 -45 -102v-209h555v276h176v-432h-920v377q0 170 119 252l608 405v332q0 113 -94 113h-352q-102 0 -103 -136v-229h-196z" />
<glyph unicode="3" d="M127 303v125h186v-137q0 -41 4.5 -65.5t28 -47t70.5 -22.5h317q68 0 92.5 29.5t24.5 82.5v430q0 41 -3 58.5t-22.5 33t-60.5 15.5h-340v117l397 559h-499v-310h-177v463h863v-178l-351 -495h134q147 0 202.5 -55.5t55.5 -200.5v-408q0 -162 -57.5 -229.5t-248.5 -67.5 h-364q-145 0 -198.5 81t-53.5 222z" />
<glyph unicode="4" d="M119 410v192l586 1032h198v-1052h152v-172h-152v-410h-198v410h-586zM281 582h424v749z" />
<glyph unicode="5" d="M117 303v125h188v-137q0 -31 3 -49.5t11.5 -41t30 -33.5t60.5 -11h340q51 0 75.5 19.5t27.5 38.5t3 58v451q0 45 -2 62.5t-19.5 30.5t-52.5 13h-610v805h817v-155h-618v-500h473q127 0 169 -53.5t42 -167.5v-488q0 -127 -52.5 -198.5t-211.5 -71.5h-422q-145 0 -198.5 83 t-53.5 220z" />
<glyph unicode="6" d="M145 297v1065q0 272 265 272h397q147 0 200.5 -68.5t53.5 -234.5v-125h-191v137q0 39 -4 65t-28.5 48.5t-69.5 22.5h-319q-66 0 -85.5 -31t-19.5 -86v-451q4 2 15.5 17.5t24.5 24t34 8.5h413q152 0 202 -69t50 -214v-381q0 -152 -51 -224.5t-213 -72.5h-426 q-248 0 -248 297zM344 268q0 -49 22.5 -80.5t63.5 -31.5h354q100 0 101 112v406q0 131 -74 131h-393q-35 0 -54.5 -34t-19.5 -75v-428z" />
<glyph unicode="7" d="M127 1145v489h909v-204l-569 -1430h-197l576 1479h-543v-334h-176z" />
<glyph unicode="8" d="M135 297v356q0 98 60.5 155.5t121.5 68.5l-2 6q-53 14 -108 67.5t-55 130.5v285q0 119 65.5 193.5t200.5 74.5h362q131 0 197.5 -74.5t66.5 -193.5v-285q0 -82 -52 -133t-107 -63v-6q55 -8 116.5 -62.5t61.5 -138.5v-381q0 -297 -309 -297h-314q-168 0 -236.5 73.5 t-68.5 223.5zM332 268q0 -55 24.5 -84.5t94.5 -29.5h294q68 0 93.5 29.5t25.5 84.5v420q0 109 -86 109h-358q-88 0 -88 -109v-420zM350 1055q0 -41 25.5 -72t75.5 -31h303q57 0 74.5 27t17.5 76v325q0 98 -82 99h-332q-82 0 -82 -99v-325z" />
<glyph unicode="9" d="M119 963v374q0 297 264 297h418q250 0 250 -297v-1067q0 -117 -69 -193.5t-196 -76.5h-409q-131 0 -192.5 86t-61.5 217v125h188v-137q0 -39 4 -64.5t29 -48t70 -22.5h336q104 0 104 116v451q-33 -49 -76 -49h-407q-127 0 -189.5 83t-62.5 206zM317 963q0 -131 76 -132 h385q76 0 76 91v446q0 113 -88 113h-346q-102 0 -103 -113v-405z" />
<glyph unicode=":" horiz-adv-x="464" d="M117 113q0 49 34.5 84.5t86.5 35.5q49 0 83.5 -35.5t34.5 -84.5q0 -51 -34.5 -87t-85.5 -36q-49 0 -84 36t-35 87zM117 940q0 49 34.5 86t86.5 37q49 0 83.5 -37t34.5 -86q0 -51 -34.5 -86t-85.5 -35q-49 0 -84 35t-35 86z" />
<glyph unicode=";" horiz-adv-x="464" d="M-23 -336l185 567h182l-231 -567h-136zM117 940q0 49 34.5 86t86.5 37q49 0 83.5 -37t34.5 -86q0 -51 -34.5 -86t-85.5 -35q-49 0 -84 35t-35 86z" />
<glyph unicode="&#x37e;" horiz-adv-x="464" d="M-23 -336l185 567h182l-231 -567h-136zM117 940q0 49 34.5 86t86.5 37q49 0 83.5 -37t34.5 -86q0 -51 -34.5 -86t-85.5 -35q-49 0 -84 35t-35 86z" />
<glyph unicode="&#x3c;" d="M115 729v182l983 469v-174l-795 -387l795 -391v-174z" />
<glyph unicode="=" d="M145 584v159h885v-159h-885zM145 911v158h885v-158h-885z" />
<glyph unicode="&#x3e;" d="M96 254v174l793 391l-793 387v174l983 -469v-182z" />
<glyph unicode="?" horiz-adv-x="1073" d="M133 1219v415h582q131 0 191.5 -53t60.5 -190v-408q0 -229 -211 -229h-170q-55 0 -72.5 -23.5t-17.5 -81.5v-243h-197v315q0 106 52 152.5t163 46.5h170q47 0 62.5 22.5t15.5 65.5v344q0 113 -107 112h-342v-245h-180zM270 113q0 49 35 84.5t88 35.5q47 0 83 -35.5 t36 -84.5q0 -51 -36 -87t-87 -36q-49 0 -84 36t-35 87z" />
<glyph unicode="@" horiz-adv-x="1943" d="M88 563q2 266 129 516t364.5 416t524.5 166q344 0 550 -225.5t206 -550.5q0 -281 -155 -509.5t-345 -228.5q-78 0 -134.5 45.5t-58.5 147.5q-33 -51 -71 -86q-106 -100 -236 -100q-133 2 -223 110.5t-90 292.5q0 270 160.5 469t351.5 197q74 0 141 -37q72 -41 113 -125 l22 102h160l-70 -329q-90 -424 -90 -474q0 -88 62 -88q106 0 223 186.5t117 428.5q0 283 -180.5 471t-452.5 190q-332 0 -561 -252q-125 -139 -200 -342.5t-75 -406.5q0 -143 46 -269t135.5 -230.5t241 -166t343.5 -61.5q121 0 233.5 25.5t187.5 58.5t148.5 84t107.5 82.5 t77 76.5l72 -90q-344 -354 -842 -354q-438 0 -685 238.5t-247 621.5zM735 502q0 -221 162 -221q92 0 167 82.5t115 196.5t58 218.5t14 161.5q-6 92 -55 135t-106 43q-117 -2 -201 -121q-61 -86 -107.5 -228t-46.5 -267z" />
<glyph unicode="A" horiz-adv-x="1355" d="M6 0v170h144l419 1464h260l367 -1464h154v-170h-473v170h112l-92 395h-440l-103 -395h127v-170h-475zM502 735h354l-166 695h-6z" />
<glyph unicode="B" horiz-adv-x="1212" d="M47 0v170h137v1294h-137v170h774q141 0 202.5 -63.5t61.5 -204.5v-326q0 -70 -42 -123t-97 -61v-8q59 -8 105.5 -58.5t46.5 -136.5v-356q0 -166 -60.5 -231.5t-246.5 -65.5h-744zM383 170h397q80 0 99.5 23.5t19.5 89.5v374q0 109 -86 109h-430v-596zM383 922h414 q90 0 90 100v344q0 55 -16.5 76.5t-65.5 21.5h-422v-542z" />
<glyph unicode="C" horiz-adv-x="1114" d="M119 246v1143q0 246 246 245h669v-422h-178v252h-450q-88 0 -89 -98v-1098q0 -51 17.5 -74.5t71.5 -23.5h456v262h176v-432h-698q-117 0 -169 72t-52 174z" />
<glyph unicode="D" horiz-adv-x="1230" d="M53 0v170h137v1294h-137v170h774q158 0 224.5 -71.5t66.5 -219.5v-1052q0 -152 -70.5 -221.5t-220.5 -69.5h-774zM387 168h440q55 0 73 24.5t18 88.5v1069q0 61 -18.5 86.5t-72.5 25.5h-440v-1294z" />
<glyph unicode="E" horiz-adv-x="1142" d="M53 0v170h137v1294h-137v170h1030v-422h-178v252h-516v-542h500v-170h-500v-582h516v262h178v-432h-1030z" />
<glyph unicode="F" horiz-adv-x="1062" d="M53 0v170h137v1294h-137v170h977v-440h-178v270h-463v-542h488v-170h-488v-582h139v-170h-475z" />
<glyph unicode="G" horiz-adv-x="1167" d="M115 279v1095q0 260 241 260h691v-413h-179v243h-473q-41 0 -61.5 -31.5t-20.5 -76.5v-1077q0 -45 24.5 -77t63.5 -32h447v588h-299v172h498v-930h-652q-160 0 -220 59.5t-60 219.5z" />
<glyph unicode="H" horiz-adv-x="1341" d="M53 0v170h137v1294h-137v170h475v-170h-139v-534h561v534h-137v170h473v-170h-137v-1294h137v-170h-473v170h137v588h-561v-588h139v-170h-475z" />
<glyph unicode="I" horiz-adv-x="583" d="M53 0v170h137v1294h-137v170h475v-170h-139v-1294h139v-170h-475z" />
<glyph unicode="J" horiz-adv-x="704" d="M0 0v170h207q61 0 80.5 29.5t19.5 83.5v1181h-180v170h526v-170h-147v-1202q0 -109 -55.5 -185.5t-186.5 -76.5h-264z" />
<glyph unicode="K" horiz-adv-x="1226" d="M53 0v170h137v1294h-133v170h463v-170h-131v-626h4l461 626h-106v170h450v-170h-141l-418 -557h195q117 0 183 -63.5t66 -163.5v-510h138v-170h-473v170h137v473q0 104 -117 105h-379v-578h139v-170h-475z" />
<glyph unicode="L" horiz-adv-x="1042" d="M53 0v170h137v1294h-137v170h475v-170h-139v-1294h438v252h177v-422h-951z" />
<glyph unicode="M" horiz-adv-x="1679" d="M53 0v170h135v1294h-135v170h383l428 -985l424 985h359v-170h-136v-1294h136v-170h-476v170h142v1112l-383 -881h-144l-399 881v-1112h141v-170h-475z" />
<glyph unicode="N" horiz-adv-x="1376" d="M53 0v170h137v1294h-137v170h336l619 -1251v1081h-138v170h476v-170h-140v-1464h-198l-619 1251v-1081h139v-170h-475z" />
<glyph unicode="O" horiz-adv-x="1212" d="M131 303v1034q0 297 264 297h455q145 0 197.5 -73.5t52.5 -223.5v-1067q0 -133 -58.5 -201.5t-205.5 -68.5h-453q-143 0 -197.5 69.5t-54.5 233.5zM330 307q0 -137 102 -137h365q59 0 81.5 29.5t22.5 89.5v1065q0 113 -86 112h-383q-102 0 -102 -112v-1047z" />
<glyph unicode="P" horiz-adv-x="1136" d="M53 0v170h137v1294h-137v170h776q147 0 198.5 -64.5t51.5 -232.5v-321q0 -160 -58 -215.5t-206 -55.5h-426v-575h158v-170h-494zM389 913h385q49 0 73.5 18.5t29 38t4.5 62.5v320q0 113 -86 112h-406v-551z" />
<glyph unicode="Q" horiz-adv-x="1212" d="M119 303v1034q0 162 63.5 229.5t200.5 67.5h463q133 0 191.5 -72.5t58.5 -224.5v-1065q0 -272 -267 -272h-147v-162h-164v162h-147q-143 0 -197.5 73.5t-54.5 229.5zM317 305q0 -135 103 -135h98v258h164v-258h104q37 0 60.5 8t33 28.5t12.5 37t3 43.5v1065 q0 113 -88 112h-387q-51 0 -77 -32.5t-26 -79.5v-1047z" />
<glyph unicode="R" horiz-adv-x="1271" d="M53 0v170h142v1294h-142v170h834q217 0 217 -202v-412q0 -43 -11.5 -75t-36 -49t-36.5 -23.5t-35 -12.5v-8q86 -23 115 -72q23 -41 22 -100v-510h156v-170h-487v170h133v479q0 55 -17.5 86t-72.5 31h-445v-596h139v-170h-475zM389 922h430q86 0 86 106v326q0 111 -76 110 h-440v-542z" />
<glyph unicode="S" horiz-adv-x="1167" d="M117 0v432h178v-264h467q90 0 90 117v364q0 57 -17.5 81t-72.5 24h-432q-211 0 -211 229v408q0 137 60.5 190t191.5 53h669v-415h-178v245h-432q-106 0 -106 -112v-344q0 -43 15 -65.5t62 -22.5h435q111 0 163 -46.5t52 -152.5v-514q0 -102 -66.5 -154.5t-167.5 -52.5 h-700z" />
<glyph unicode="T" horiz-adv-x="1120" d="M35 1151v483h1050v-483h-178v313h-245v-1294h186v-170h-576v170h191v1294h-250v-313h-178z" />
<glyph unicode="U" horiz-adv-x="1269" d="M20 1464v170h476v-170h-140v-1185q0 -35 4.5 -54.5t28 -37t66.5 -17.5h376q84 0 84 109v1185h-141v170h477v-170h-139v-1241q0 -223 -201 -223h-551q-201 0 -200 236v1228h-140z" />
<glyph unicode="V" horiz-adv-x="1343" d="M6 1464v170h481v-170h-131l312 -1204h12l321 1204h-149v170h485v-170h-143l-414 -1464h-235l-391 1464h-148z" />
<glyph unicode="W" horiz-adv-x="1859" d="M4 1464v170h481v-170h-123l179 -1079h12l250 1249h248l219 -1265h4l227 1095h-133v170h487v-170h-174l-309 -1464h-219l-233 1294h-7l-278 -1294h-211l-258 1464h-162z" />
<glyph unicode="X" horiz-adv-x="1226" d="M6 0v170h144l360 686l-320 608h-133v170h467v-170h-125l213 -409l215 409h-127v170h467v-170h-133l-317 -608l360 -686h142v-170h-467v170h116l-254 487l-258 -487h117v-170h-467z" />
<glyph unicode="Y" horiz-adv-x="1245" d="M10 1464v170h479v-170h-127l271 -503h12l268 503h-157v170h489v-170h-131l-391 -694v-600h143v-170h-477v170h135v600l-370 694h-144z" />
<glyph unicode="Z" horiz-adv-x="1075" d="M29 0v170l800 1294h-565v-243h-178v413h958v-170l-798 -1294h598v244h176v-414h-991z" />
<glyph unicode="[" horiz-adv-x="559" d="M131 -57v1677q0 82 40 117t126 35h176v-127h-209v-1727h209v-129h-176q-86 0 -126 36t-40 118z" />
<glyph unicode="\" horiz-adv-x="776" d="M-39 1700h129l723 -1817h-139zM674 -117h139h-139z" />
<glyph unicode="]" horiz-adv-x="559" d="M104 -82h211v1727h-211v127h179q86 0 126 -35t40 -117v-1677q0 -82 -40 -118t-126 -36h-179v129z" />
<glyph unicode="^" horiz-adv-x="1398" d="M221 811l416 823h147l402 -823h-174l-305 633l-310 -633h-176z" />
<glyph unicode="_" horiz-adv-x="1157" d="M0 -145h1151v-95h-1151v95z" />
<glyph unicode="`" horiz-adv-x="626" d="M72 1546h207l278 -385h-209z" />
<glyph unicode="a" horiz-adv-x="1011" d="M88 195v217q0 193 207 192h399v234q0 25 -18.5 42t-42.5 17h-277q-29 0 -48 -23.5t-19 -60.5v-100h-174v155q0 195 207 195h333q221 0 222 -217v-680h112v-166h-710q-113 0 -152 42t-39 153zM272 248q0 -82 68 -82h354v274h-354q-41 0 -54.5 -20.5t-13.5 -63.5v-108z" />
<glyph unicode="b" horiz-adv-x="1011" d="M4 1466v168h301v-571h410q117 0 157.5 -51t40.5 -156v-661q0 -92 -41 -143.5t-149 -51.5h-602v1466h-117zM305 166h352q33 0 52.5 25.5t19.5 60.5v563q0 84 -67 84h-357v-733z" />
<glyph unicode="c" horiz-adv-x="894" d="M102 195v673q0 195 209 195h506v-334h-166v172h-297q-68 0 -67 -86v-567q0 -33 18.5 -57.5t48.5 -24.5h308v141h165v-307h-532q-193 0 -193 195z" />
<glyph unicode="d" horiz-adv-x="1011" d="M111 195v673q0 195 206 195h377v403h-116v168h299v-1468h120v-166h-698q-117 0 -152.5 45.5t-35.5 149.5zM291 248q0 -82 69 -82h334v735h-334q-70 0 -69 -86v-567z" />
<glyph unicode="e" horiz-adv-x="978" d="M106 166v680q0 217 224 217h354q113 0 159 -45t46 -150v-424h-598v-206q0 -37 12 -54.5t51 -17.5h289q61 0 62 72v57h184v-100q0 -195 -189 -195h-415q-88 0 -133.5 45t-45.5 121zM291 598h414v231q0 37 -11.5 51.5t-44.5 14.5h-297q-61 0 -61 -59v-238z" />
<glyph unicode="f" horiz-adv-x="528" d="M49 0v166h127v729h-123v168h123v348q0 223 193 223h151v-159h-82q-33 0 -55.5 -21.5t-22.5 -54.5v-336h136v-168h-136v-729h119v-166h-430z" />
<glyph unicode="g" horiz-adv-x="1024" d="M111 195v673q0 92 38.5 143.5t151.5 51.5h690v-168h-121v-1135q0 -92 -39.5 -143t-148.5 -51h-346q-113 0 -157 45t-44 149v101h178v-62q0 -37 11.5 -52t52.5 -15h244q29 0 47 22.5t18 48.5v197h-371q-125 0 -164.5 45.5t-39.5 149.5zM295 244q0 -78 59 -78h332v729h-334 q-57 0 -57 -78v-573z" />
<glyph unicode="h" horiz-adv-x="1058" d="M14 1466v168h320v-571h387q119 0 164 -48t45 -147v-702h108v-166h-409v166h119v637q0 94 -68 94h-346v-731h115v-166h-418v166h121v1300h-138z" />
<glyph unicode="i" horiz-adv-x="512" d="M53 -2v166h123v727h-119v172h303v-899h113v-166h-420zM135 1305q0 49 35 85.5t86 36.5q49 0 85 -36.5t36 -85.5q0 -51 -36 -86t-87 -35q-49 0 -84 35t-35 86z" />
<glyph unicode="j" horiz-adv-x="442" d="M2 -276h78q49 0 64.5 19t15.5 58v1094h-123v168h307v-1274q0 -119 -44 -171t-150 -52h-148v158zM127 1303q0 49 35 84.5t86 35.5q49 0 84 -35.5t35 -85t-35 -84t-84 -36.5q-49 0 -84 35t-37 86z" />
<glyph unicode="k" horiz-adv-x="1011" d="M35 0v166h121v1300h-121v168h305v-1052l264 313h-121v168h437v-168h-115l-295 -348l369 -381h110v-166h-438v166h96l-307 315v-481h-305z" />
<glyph unicode="l" horiz-adv-x="512" d="M37 1466v168h319v-1468h121v-166h-438v166h137v1300h-139z" />
<glyph unicode="m" horiz-adv-x="1638" d="M51 0v166h113v729h-113v168h1252q115 0 161.5 -49t46.5 -146v-702h111v-166h-412v166h117v657q0 72 -57 72h-340v-729h117v-166h-418v166h116v729h-397v-729h115v-166h-412z" />
<glyph unicode="n" horiz-adv-x="1058" d="M51 0v166h113v729h-113v168h672q115 0 162 -49t47 -146v-702h112v-166h-411v166h117v657q0 72 -60 72h-342v-729h115v-166h-412z" />
<glyph unicode="o" horiz-adv-x="1024" d="M111 197v671q0 195 204 195h392q123 0 165.5 -48t42.5 -147v-671q0 -100 -42 -148.5t-162 -48.5h-396q-113 0 -158.5 50.5t-45.5 146.5zM291 236q0 -23 3 -35.5t16.5 -23.5t39.5 -11h324q59 0 59 72v585q0 72 -59 72h-324q-59 0 -59 -72v-587z" />
<glyph unicode="p" horiz-adv-x="1013" d="M35 -256h117v1151h-117v168h678q207 0 207 -195v-671q0 -96 -45.5 -146.5t-161.5 -50.5h-377v-256h119v-168h-420v168zM336 166h344q55 0 55 72v585q0 72 -55 72h-344v-729z" />
<glyph unicode="q" horiz-adv-x="1011" d="M106 197v671q0 96 46.5 145.5t160.5 49.5h678v-168h-112v-1151h112v-168h-418v168h121v256h-381q-119 0 -163 47.5t-44 149.5zM289 236q0 -23 3 -35.5t16.5 -23.5t39.5 -11h346v729h-348q-57 0 -57 -72v-587z" />
<glyph unicode="r" horiz-adv-x="839" d="M53 0v166h117v729h-117v168h553q125 0 167 -43t42 -152v-211h-172v166q0 72 -59 72h-230v-729h119v-166h-420z" />
<glyph unicode="s" horiz-adv-x="894" d="M78 0v322h162v-156h333q45 0 57.5 20.5t12.5 61.5v131q0 66 -53 65h-283q-117 0 -162 51.5t-45 155.5v217q0 94 44 144.5t161 50.5h502v-334h-152v170h-305q-68 0 -67 -84v-108q0 -53 12 -74t57 -21h277q111 0 154.5 -48t43.5 -132v-237q0 -195 -190 -195h-559z" />
<glyph unicode="t" horiz-adv-x="497" d="M12 895v168h121v360h184v-360h136v-168h-136v-655q0 -23 2.5 -37.5t16.5 -25.5t43 -11h72v-166h-101q-119 0 -168 45t-49 152v698h-121z" />
<glyph unicode="u" horiz-adv-x="1058" d="M37 895v168h301v-834q0 -63 61 -63h338v729h-110v168h295v-897h116v-166h-667q-121 0 -169 50t-48 151v694h-117z" />
<glyph unicode="v" horiz-adv-x="985" d="M4 895v168h414v-168h-101l179 -633h4l180 633h-111v168h412v-168h-119l-301 -895h-162l-276 895h-119z" />
<glyph unicode="w" horiz-adv-x="1486" d="M27 895v168h411v-168h-114l161 -594h4l195 762h139l205 -756h4l152 588h-127v168h413v-168h-118l-265 -895h-131l-200 737h-4l-203 -737h-131l-273 895h-118z" />
<glyph unicode="x" horiz-adv-x="917" d="M2 0v166h135l217 381l-200 348h-136v168h314v-117l125 -219l125 219v117h305v-168h-135l-195 -342l223 -387h135v-166h-313v117l-147 254l-144 -254v-117h-309z" />
<glyph unicode="y" horiz-adv-x="1021" d="M0 895v168h416v-168h-94l196 -625l205 625h-111v168h410v-168h-117l-444 -1325h-176l143 432l-297 893h-131z" />
<glyph unicode="z" horiz-adv-x="929" d="M72 0v162l563 733h-383v-141h-166v309h766v-162l-561 -735h411v141h166v-307h-796z" />
<glyph unicode="{" horiz-adv-x="745" d="M129 616v103q33 10 58.5 26.5t42 31t27.5 44t17.5 45t9.5 53t3 52.5v60v54v156q0 102 6 163.5t26.5 127t59.5 102.5t108.5 66t169.5 37v-105q-63 -16 -105 -41.5t-65.5 -51.5t-35 -76t-13.5 -90t-2 -120v-57q0 -289 -26.5 -387t-133.5 -145q39 -18 70 -43t48.5 -63 t27.5 -66.5t13 -79t4 -80t0 -88t-1 -80.5v-84q0 -180 39 -256t187 -123v-104q-127 14 -201 42.5t-112 88t-50 132t-12 197.5v164q0 14 1 60.5t0 62.5t-3 54t-8.5 55.5t-18.5 47t-28.5 47t-43 36t-59.5 32.5z" />
<glyph unicode="|" horiz-adv-x="528" d="M223 -393v2117h129v-2117h-129z" />
<glyph unicode="}" horiz-adv-x="745" d="M104 -299q147 47 186.5 123t39.5 256v84q0 23 -1 81t0 87.5t4 80t13 79t28.5 66.5t48.5 62.5t71 43.5q-109 47 -135.5 145t-26.5 387v57q0 80 -2 120t-13.5 90t-34 76t-64.5 51.5t-107 41.5v105q100 -8 169.5 -37t108.5 -66t59.5 -102.5t26.5 -127t6 -163.5v-156v-54v-60 q0 -14 3 -52t9.5 -53.5t17.5 -45t27.5 -44t42 -31t58.5 -26.5v-103q-37 -14 -65.5 -33.5t-46 -50t-29 -48t-15.5 -64.5t-5 -59.5t0 -72t1 -67.5v-164q0 -125 -12 -197.5t-50 -132t-112 -88t-201 -42.5v104z" />
<glyph unicode="~" horiz-adv-x="1398" d="M133 653q119 186 285 187q20 0 44.5 -3t41 -8.5t47.5 -15.5t41 -14t46 -20.5t44 -20.5l74 -31q113 -49 147 -49q49 0 97.5 26.5t72 51t57.5 67.5l74 -125q-139 -180 -297 -180q-78 0 -225 72l-66 33q-121 59 -194 59q-61 0 -99 -29.5t-110 -122.5z" />
<glyph unicode="&#xa3;" d="M88 0v170h143v588h-143v172h143v459q0 246 246 245h522v-422h-178v252h-303q-88 0 -88 -98v-436h358v-172h-358v-588h358q57 0 75 23.5t18 87.5v141h200v-131q0 -152 -71.5 -221.5t-221.5 -69.5h-700z" />
<glyph unicode="&#xa4;" horiz-adv-x="1054" d="M45 279l107 106q-98 115 -95 279q0 176 95 280l-107 103l98 98l105 -107q117 94 280 95q160 0 285 -95l102 107l93 -98l-103 -107q92 -100 92 -276q0 -168 -92 -279l103 -106l-93 -99l-102 109q-113 -98 -289 -99q-170 0 -276 97l-105 -107zM223 664q0 -131 89 -223.5 t216 -92.5t215 93.5t88 222.5q0 125 -88 219t-215 94t-216 -93t-89 -220z" />
<glyph unicode="&#xa6;" horiz-adv-x="579" d="M199 410h186v-820h-186v820zM199 758v819h186v-819h-186z" />
<glyph unicode="&#xa7;" d="M123 453v274q0 133 22.5 185.5t106.5 72.5q-68 31 -84 84t-16 160v141q0 57 7 99t16 70t32.5 46.5t41 27.5t59.5 14t67.5 6t87.5 1h16h277q139 0 201.5 -24.5t79 -72.5t16.5 -159v-153h-176v106q0 92 -14.5 109.5t-106.5 17.5h-289q-96 0 -115.5 -21.5t-19.5 -117.5v-94 q0 -106 19.5 -132t119.5 -26h317q193 0 245 -45t52 -227v-234q0 -59 -2 -91t-15 -73t-43 -63.5t-81 -36.5q51 -20 75.5 -60t29 -75t4.5 -107v-129q0 -98 -7.5 -144t-36 -84t-87 -49t-164.5 -11h-326q-170 0 -225 41.5t-55 203.5v160h180v-104q0 -84 18.5 -102.5t114.5 -18.5 h285q96 0 113.5 14t17.5 96v150q0 84 -22.5 108.5t-121.5 24.5h-338q-180 0 -228 42t-48 200zM317 516q0 -92 15.5 -110.5t99.5 -18.5h324q98 0 119.5 22.5t21.5 104.5v242q0 100 -18.5 119.5t-126.5 19.5h-299q-96 0 -116 -20.5t-20 -102.5v-256z" />
<glyph unicode="&#xa9;" horiz-adv-x="1865" d="M102 808q0 345 246 588.5t591 243.5t589 -243.5t244 -589.5t-245 -591t-591 -243q-346 0 -590 245t-244 590zM244 807q-4 -287 200.5 -490.5t491.5 -203.5t490.5 202.5t203.5 489.5q0 285 -203.5 489.5t-488.5 204.5q-287 0 -490.5 -202.5t-203.5 -489.5zM645 477v680 q0 158 156 158h411v-275h-129v150h-256q-43 0 -43 -45v-656q0 -27 7.5 -36t35.5 -9h258v156h129v-283h-428q-74 0 -107.5 47t-33.5 113z" />
<glyph unicode="&#xab;" horiz-adv-x="770" d="M68 537l268 387l96 -68l-217 -319l217 -293l-96 -72zM340 539l256 372l92 -67l-207 -303l207 -279l-90 -74z" />
<glyph unicode="&#xac;" d="M12 578v165h1135v-743h-178v578h-957z" />
<glyph unicode="&#xad;" horiz-adv-x="776" d="M96 489v160h602v-160h-602z" />
<glyph unicode="&#x2010;" horiz-adv-x="776" d="M96 489v160h602v-160h-602z" />
<glyph unicode="&#xae;" horiz-adv-x="1865" d="M115 808q0 345 244.5 588.5t590.5 243.5t590 -243.5t244 -589.5t-245 -591t-591 -243q-346 0 -589.5 245t-243.5 590zM254 807q-2 -287 203 -490.5t491.5 -203.5t489 202.5t202.5 489.5q0 285 -202.5 489.5t-487.5 204.5q-287 0 -491.5 -202.5t-204.5 -489.5zM573 317 v127h84v746h-84v125h510q139 0 140 -131v-246q0 -70 -54 -98q66 -23 66 -105v-291h92v-127h-313v127h80v273q0 31 -8.5 44t-34.5 13h-252v-330h82v-127h-308zM799 891h241q41 0 41 53v193q0 53 -32 53h-250v-299z" />
<glyph unicode="&#xb0;" horiz-adv-x="819" d="M70 1391q0 143 99 242.5t243 97.5q139 0 238.5 -99.5t99.5 -242.5q0 -139 -99.5 -238.5t-240.5 -97.5q-141 0 -240.5 99.5t-99.5 238.5zM207 1394q0 -81 60.5 -142.5t142.5 -61.5q84 -2 143 57.5t59 143.5t-59 144t-141 60q-84 0 -144.5 -60t-60.5 -141z" />
<glyph unicode="&#xb1;" d="M70 172v174h1058v-174h-1058zM70 887v174h450v446h178v-446h430v-174h-430v-451h-178v451h-450z" />
<glyph unicode="&#xb5;" horiz-adv-x="1058" d="M43 895v168h295v-834q0 -63 61 -63h330v729h-113v168h297v-897h117v-166h-692v-436h-184v1331h-111z" />
<glyph unicode="&#x3bc;" horiz-adv-x="1058" d="M43 895v168h295v-834q0 -63 61 -63h330v729h-113v168h297v-897h117v-166h-692v-436h-184v1331h-111z" />
<glyph unicode="&#xb6;" horiz-adv-x="1167" d="M39 1278q0 356 455 356h522v-1849h-170v1714h-223v-1714h-168l2 1147q-190 0 -304 95t-114 251zM455 -215h168h-168z" />
<glyph unicode="&#xb7;" horiz-adv-x="436" d="M94 583.5q0 53.5 37 90.5t91 37t90 -38t36 -89q0 -53 -36 -91t-90 -38t-91 37.5t-37 91z" />
<glyph unicode="&#x22c5;" horiz-adv-x="436" d="M94 583.5q0 53.5 37 90.5t91 37t90 -38t36 -89q0 -53 -36 -91t-90 -38t-91 37.5t-37 91z" />
<glyph unicode="&#x2219;" horiz-adv-x="436" d="M94 583.5q0 53.5 37 90.5t91 37t90 -38t36 -89q0 -53 -36 -91t-90 -38t-91 37.5t-37 91z" />
<glyph unicode="&#xbb;" horiz-adv-x="770" d="M82 254l207 301l-207 283l90 69l258 -350l-254 -369zM340 244l217 317l-217 293l94 70l268 -363l-268 -389z" />
<glyph unicode="&#xf7;" d="M145 584v159h885v-159h-885zM461 260q0 47 34.5 84t86.5 37q49 0 83.5 -37t34.5 -84q0 -53 -34.5 -88t-85.5 -35q-49 0 -84 35t-35 88zM461 1087q0 49 34.5 86t86.5 37q49 0 83.5 -36.5t34.5 -86.5q0 -51 -34.5 -85.5t-85.5 -34.5q-49 0 -84 34.5t-35 85.5z" />
<glyph unicode="&#x192;" horiz-adv-x="886" d="M23 -369l22 170h70q96 0 114 19q20 25 27 119l123 958h-139l22 168h139l29 238q10 100 24.5 148t55.5 83q10 12 23.5 20.5t30 12.5t26.5 8t32.5 5t28.5 1h33h31h135l-21 -168h-65q-96 0 -116.5 -20.5t-33.5 -120.5l-26 -207h147l-20 -168h-148l-123 -985q-8 -63 -14 -90 t-21.5 -76t-48 -74.5t-84.5 -36.5q-41 -4 -116 -4h-137z" />
<glyph unicode="&#x401;" horiz-adv-x="1142" d="M53 0v170h137v1294h-137v170h1030v-422h-178v252h-516v-542h500v-170h-500v-582h516v262h178v-432h-1030zM266 1915q0 49 35 85t86 36q49 0 84 -36t35 -85q0 -51 -35 -86t-86 -35q-49 0 -84 35t-35 86zM686 1915q0 49 35 85t86 36q49 0 85 -36t36 -85q0 -51 -36 -86 t-87 -35q-49 0 -84 35t-35 86z" />
<glyph unicode="&#x402;" horiz-adv-x="1478" d="M35 1151v483h1050v-483h-178v313h-245v-575h442q264 0 264 -271v-700q0 -225 -201 -225h-147v170h67q82 0 82 108v633q0 117 -104 117h-403v-551h137v-170h-475v170h139v1294h-250v-313h-178z" />
<glyph unicode="&#x403;" horiz-adv-x="1075" d="M49 0v170h141v1294h-141v170h981v-483h-182v313h-459v-1294h143v-170h-483zM338 1714l280 385h205l-317 -385h-168z" />
<glyph unicode="&#x404;" horiz-adv-x="1114" d="M115 221v1192q0 102 54 161.5t144 59.5h725v-422h-176v252h-461q-53 0 -70.5 -25.5t-17.5 -72.5v-444h488v-170h-488v-484q0 -49 17.5 -73.5t70.5 -24.5h461v262h176v-432h-725q-86 0 -142 65.5t-56 155.5z" />
<glyph unicode="&#x405;" horiz-adv-x="1167" d="M117 0v432h178v-264h467q90 0 90 117v364q0 57 -17.5 81t-72.5 24h-432q-211 0 -211 229v408q0 137 60.5 190t191.5 53h669v-415h-178v245h-432q-106 0 -106 -112v-344q0 -43 15 -65.5t62 -22.5h435q111 0 163 -46.5t52 -152.5v-514q0 -102 -66.5 -154.5t-167.5 -52.5 h-700z" />
<glyph unicode="&#x406;" horiz-adv-x="583" d="M53 0v170h137v1294h-137v170h475v-170h-139v-1294h139v-170h-475z" />
<glyph unicode="&#x407;" horiz-adv-x="583" d="M-18 1915q0 49 34.5 85t85.5 36q49 0 84 -36t35 -85q0 -51 -34.5 -86t-86.5 -35q-49 0 -83.5 35t-34.5 86zM53 0v170h137v1294h-137v170h475v-170h-139v-1294h139v-170h-475zM362 1915q0 49 35 85t86 36q49 0 84 -36t35 -85q0 -51 -35 -86t-86 -35q-49 0 -84 35t-35 86z " />
<glyph unicode="&#x408;" horiz-adv-x="704" d="M0 0v170h207q61 0 80.5 29.5t19.5 83.5v1181h-180v170h526v-170h-147v-1202q0 -109 -55.5 -185.5t-186.5 -76.5h-264z" />
<glyph unicode="&#x409;" horiz-adv-x="1861" d="M0 0v170h117q43 0 70.5 34t33.5 83l195 1177h-146v170h969v-170h-137v-532h459q229 0 229 -258v-377q0 -180 -59.5 -238.5t-245.5 -58.5h-746v170h164v1294h-303l-190 -1194q-20 -117 -85 -193.5t-169 -76.5h-156zM1102 170h373q72 0 94 28.5t22 84.5v368q0 55 -18.5 84 t-71.5 29h-399v-594z" />
<glyph unicode="&#x40a;" horiz-adv-x="1910" d="M53 0v170h137v1294h-137v170h475v-170h-139v-534h561v534h-137v170h473v-170h-137v-532h457q231 0 231 -258v-377q0 -180 -59.5 -238.5t-245.5 -58.5h-719v170h137v588h-561v-588h139v-170h-475zM1149 170h373q70 0 93 28.5t23 84.5v368q0 55 -18 84t-72 29h-399v-594z " />
<glyph unicode="&#x40b;" horiz-adv-x="1531" d="M35 1151v483h1050v-483h-178v313h-245v-575h442q264 0 264 -271v-448h137v-170h-473v170h137v434q0 117 -104 117h-403v-551h137v-170h-475v170h139v1294h-250v-313h-178z" />
<glyph unicode="&#x40c;" horiz-adv-x="1226" d="M53 0v170h133v1294h-129v170h463v-170h-125v-626h2l457 626h-106v170h450v-170h-129l-418 -557h187q117 0 183 -63.5t66 -163.5v-510h134v-170h-473v170h133v473q0 104 -117 105h-369v-578h133v-170h-475zM479 1714l279 385h207l-318 -385h-168z" />
<glyph unicode="&#x40e;" horiz-adv-x="1226" d="M10 1464v170h479v-170h-139l256 -725l281 725h-154v170h488v-170h-142l-565 -1464h-192l184 473l-367 991h-129zM338 2034h139q0 -109 23.5 -139.5t138.5 -30.5t139.5 30.5t24.5 139.5h137q0 -86 -9 -136.5t-38 -92.5t-91.5 -58t-162.5 -16t-161.5 16t-91.5 58t-39 92.5 t-9 136.5z" />
<glyph unicode="&#x40f;" horiz-adv-x="1341" d="M53 0v170h144v1294h-144v170h484v-170h-142v-1294h551v1294h-143v170h483v-170h-141v-1294h141v-170h-516v-336h-199v336h-518z" />
<glyph unicode="&#x410;" horiz-adv-x="1355" d="M6 0v170h144l419 1464h260l367 -1464h154v-170h-473v170h112l-92 395h-440l-103 -395h127v-170h-475zM502 735h354l-166 695h-6z" />
<glyph unicode="&#x411;" horiz-adv-x="1212" d="M53 0v170h137v1294h-137v170h1004v-422h-180v252h-488v-508h483q231 0 232 -256v-403q0 -160 -59.5 -228.5t-245.5 -68.5h-746zM389 170h399q74 0 95.5 28.5t21.5 84.5v395q0 33 -1 46t-9 31.5t-27.5 25.5t-52.5 7h-426v-618z" />
<glyph unicode="&#x412;" horiz-adv-x="1212" d="M53 0v170h137v1294h-137v170h776q139 0 202 -63.5t63 -204.5v-326q0 -70 -43 -123t-99 -61v-8q61 -8 106.5 -58.5t45.5 -136.5v-356q0 -166 -60.5 -231.5t-244.5 -65.5h-746zM389 170h397q80 0 99.5 23.5t19.5 89.5v374q0 109 -86 109h-430v-596zM389 922h414 q92 0 92 100v344q0 55 -16.5 76.5t-65.5 21.5h-424v-542z" />
<glyph unicode="&#x413;" horiz-adv-x="1075" d="M49 0v170h141v1294h-141v170h981v-483h-182v313h-459v-1294h143v-170h-483z" />
<glyph unicode="&#x414;" horiz-adv-x="1331" d="M45 170h137l303 1294h-141v170h930v-170h-141v-1294h153v-506h-192v336h-856v-336h-193v506zM379 170h555v1294h-254z" />
<glyph unicode="&#x415;" horiz-adv-x="1142" d="M53 0v170h137v1294h-137v170h1030v-422h-178v252h-516v-542h500v-170h-500v-582h516v262h178v-432h-1030z" />
<glyph unicode="&#x416;" horiz-adv-x="1773" d="M14 0v170h150v510q0 100 66.5 163.5t183.5 63.5h143l-328 557h-157v170h424v-170h-68l360 -624h7v624h-144v170h473v-170h-141v-624h4l363 624h-68v170h422v-170h-156l-329 -557h145q117 0 183.5 -63.5t66.5 -163.5v-510h149v-170h-465v170h117v473q0 104 -117 105h-315 v-578h141v-170h-473v170h144v578h-316q-117 0 -117 -105v-473h117v-170h-465z" />
<glyph unicode="&#x417;" horiz-adv-x="1120" d="M94 0v432h182v-262h435q45 0 68.5 17.5t27.5 38t4 59.5v360q0 41 -3 59.5t-21.5 36t-57.5 17.5h-367v172h345q41 0 61 18.5t23.5 35.5t3.5 52v330q0 33 -3.5 49.5t-22.5 32.5t-58 16h-435v-252h-182v422h654q244 0 243 -248v-335q0 -82 -40 -128t-91 -63v-8 q147 -33 148 -170v-403q0 -150 -62.5 -214.5t-224.5 -64.5h-627z" />
<glyph unicode="&#x418;" horiz-adv-x="1341" d="M53 0v170h137v1294h-137v170h475v-170h-139v-923h8l553 860v63h-137v170h473v-170h-137v-1294h137v-170h-473v170h137v924h-6l-555 -856v-68h139v-170h-475z" />
<glyph unicode="&#x419;" horiz-adv-x="1341" d="M53 0v170h137v1294h-137v170h475v-170h-139v-923h8l553 860v63h-137v170h473v-170h-137v-1294h137v-170h-473v170h137v924h-6l-555 -856v-68h139v-170h-475zM369 2034h137q0 -109 24.5 -139.5t139 -30.5t139.5 30.5t25 139.5h137q0 -86 -9.5 -136.5t-38 -92.5t-91 -58 t-163 -16t-162 16t-91 58t-38.5 92.5t-9 136.5z" />
<glyph unicode="&#x41a;" horiz-adv-x="1226" d="M53 0v170h133v1294h-129v170h463v-170h-125v-626h2l457 626h-106v170h450v-170h-129l-418 -557h187q117 0 183 -63.5t66 -163.5v-510h134v-170h-473v170h133v473q0 104 -117 105h-369v-578h133v-170h-475z" />
<glyph unicode="&#x41b;" horiz-adv-x="1302" d="M0 0v170h117q43 0 70.5 34t33.5 83l195 1177h-146v170h975v-170h-143v-1294h143v-170h-506v170h164v1294h-303l-190 -1194q-20 -117 -85 -193.5t-169 -76.5h-156z" />
<glyph unicode="&#x41c;" horiz-adv-x="1679" d="M53 0v170h135v1294h-135v170h383l428 -985l424 985h359v-170h-136v-1294h136v-170h-476v170h142v1112l-383 -881h-144l-399 881v-1112h141v-170h-475z" />
<glyph unicode="&#x41d;" horiz-adv-x="1341" d="M53 0v170h137v1294h-137v170h475v-170h-139v-534h561v534h-137v170h473v-170h-137v-1294h137v-170h-473v170h137v588h-561v-588h139v-170h-475z" />
<glyph unicode="&#x41e;" horiz-adv-x="1212" d="M131 303v1034q0 297 264 297h455q145 0 197.5 -73.5t52.5 -223.5v-1067q0 -133 -58.5 -201.5t-205.5 -68.5h-453q-143 0 -197.5 69.5t-54.5 233.5zM330 307q0 -137 102 -137h365q59 0 81.5 29.5t22.5 89.5v1065q0 113 -86 112h-383q-102 0 -102 -112v-1047z" />
<glyph unicode="&#x41f;" horiz-adv-x="1341" d="M53 0v170h137v1294h-137v170h1233v-170h-137v-1294h137v-170h-473v170h137v1294h-561v-1294h139v-170h-475z" />
<glyph unicode="&#x420;" horiz-adv-x="1136" d="M53 0v170h137v1294h-137v170h776q147 0 198.5 -64.5t51.5 -232.5v-321q0 -160 -58 -215.5t-206 -55.5h-426v-575h158v-170h-494zM389 913h385q49 0 73.5 18.5t29 38t4.5 62.5v320q0 113 -86 112h-406v-551z" />
<glyph unicode="&#x421;" horiz-adv-x="1114" d="M119 246v1143q0 246 246 245h669v-422h-178v252h-450q-88 0 -89 -98v-1098q0 -51 17.5 -74.5t71.5 -23.5h456v262h176v-432h-698q-117 0 -169 72t-52 174z" />
<glyph unicode="&#x422;" horiz-adv-x="1120" d="M35 1151v483h1050v-483h-178v313h-245v-1294h186v-170h-576v170h191v1294h-250v-313h-178z" />
<glyph unicode="&#x423;" horiz-adv-x="1226" d="M10 1464v170h479v-170h-139l256 -725l281 725h-154v170h488v-170h-142l-565 -1464h-192l184 473l-367 991h-129z" />
<glyph unicode="&#x424;" horiz-adv-x="1452" d="M84 580v483q0 160 53 235.5t211 75.5h289v90h-141v170h473v-170h-142v-90h289q156 0 210 -75.5t54 -235.5v-483q0 -158 -64.5 -223.5t-230.5 -65.5h-254l-4 -121h152v-170h-494v170h152v121h-258q-166 0 -230.5 65.5t-64.5 223.5zM283 580q0 -117 106 -117h248v743h-268 q-86 0 -86 -110v-516zM827 463h246q109 0 109 117v516q0 111 -86 110h-269v-743z" />
<glyph unicode="&#x425;" horiz-adv-x="1226" d="M6 0v170h144l360 686l-320 608h-133v170h467v-170h-125l213 -409l215 409h-127v170h467v-170h-133l-317 -608l360 -686h142v-170h-467v170h116l-254 487l-258 -487h117v-170h-467z" />
<glyph unicode="&#x426;" horiz-adv-x="1341" d="M53 0v170h137v1294h-137v170h475v-170h-139v-1294h561v1294h-137v170h473v-170h-137v-1294h154v-506h-193v336h-1057z" />
<glyph unicode="&#x427;" horiz-adv-x="1241" d="M16 1464v170h473v-170h-137v-434q0 -117 105 -117h405v551h-139v170h475v-170h-137v-1294h137v-170h-496v170h160v575h-444q-264 0 -264 271v448h-138z" />
<glyph unicode="&#x428;" horiz-adv-x="1906" d="M53 0v170h137v1294h-137v170h475v-170h-139v-1294h467v1294h-137v170h475v-170h-139v-1294h467v1294h-140v170h476v-170h-140v-1294h140v-170h-1805z" />
<glyph unicode="&#x429;" horiz-adv-x="1906" d="M53 0v170h137v1294h-137v170h475v-170h-139v-1294h467v1294h-137v170h475v-170h-139v-1294h467v1294h-140v170h476v-170h-140v-1294h150v-506h-187v336h-1628z" />
<glyph unicode="&#x42a;" horiz-adv-x="1415" d="M51 1151v483h762v-170h-160v-528h463q231 0 232 -256v-383q0 -180 -59.5 -238.5t-248.5 -58.5h-723v170h138v1294h-226v-313h-178zM653 170h379q70 0 93.5 28.5t23.5 84.5v372q0 57 -18.5 85t-73.5 28h-404v-598z" />
<glyph unicode="&#x42b;" horiz-adv-x="1656" d="M53 0v170h137v1294h-137v170h494v-170h-158v-528h459q231 0 231 -256v-383q0 -180 -59 -238.5t-248 -58.5h-719zM389 170h375q70 0 93.5 28.5t23.5 84.5v372q0 57 -18.5 85t-74.5 28h-399v-598zM1141 0v170h139v1294h-139v170h475v-170h-137v-1294h137v-170h-475z" />
<glyph unicode="&#x42c;" horiz-adv-x="1146" d="M53 0v170h137v1294h-137v170h494v-170h-158v-528h459q231 0 231 -256v-383q0 -180 -59 -238.5t-248 -58.5h-719zM389 170h375q70 0 93.5 28.5t23.5 84.5v372q0 57 -18.5 85t-74.5 28h-399v-598z" />
<glyph unicode="&#x42d;" horiz-adv-x="1114" d="M84 0v432h178v-262h459q53 0 71.5 24.5t18.5 73.5v484h-489v170h489v444q0 47 -18.5 72.5t-71.5 25.5h-459v-252h-178v422h727q88 0 142.5 -59t54.5 -162v-1192q0 -90 -55.5 -155.5t-141.5 -65.5h-727z" />
<glyph unicode="&#x42e;" horiz-adv-x="1695" d="M53 0v170h137v1294h-137v170h475v-170h-139v-534h223v407q0 297 265 297h454q143 0 196.5 -73.5t53.5 -223.5v-1067q0 -133 -58.5 -201.5t-205.5 -68.5h-453q-143 0 -197.5 69.5t-54.5 233.5v455h-223v-588h139v-170h-475zM811 307q0 -137 102 -137h365q59 0 81.5 29.5 t22.5 89.5v1065q0 113 -86 112h-383q-102 0 -102 -112v-1047z" />
<glyph unicode="&#x42f;" horiz-adv-x="1296" d="M6 0v170h160v510q0 49 12 83t40 52.5t40 23.5t39 11q4 2 6 2v8q-23 6 -35 12.5t-36.5 23.5t-36 49t-11.5 75v412q0 203 217 202h834v-170h-137v-1294h137v-170h-473v170h137v596h-444q-55 0 -72.5 -30.5t-17.5 -86.5v-479h133v-170h-492zM383 1028q0 -106 86 -106h430 v542h-438q-78 0 -78 -110v-326z" />
<glyph unicode="&#x430;" horiz-adv-x="1011" d="M88 195v217q0 193 207 192h399v234q0 25 -18.5 42t-42.5 17h-277q-29 0 -48 -23.5t-19 -60.5v-100h-174v155q0 195 207 195h333q221 0 222 -217v-680h112v-166h-710q-113 0 -152 42t-39 153zM272 248q0 -82 68 -82h354v274h-354q-41 0 -54.5 -20.5t-13.5 -63.5v-108z" />
<glyph unicode="&#x431;" horiz-adv-x="1024" d="M111 197v888q0 84 38.5 134.5t153.5 123.5l324 205v86h174v-110q0 -39 -14.5 -61.5t-65.5 -55.5l-350 -223q-80 -51 -80 -113v-65h4q25 57 82 57h334q119 0 161.5 -48t42.5 -147v-671q0 -100 -42 -148.5t-162 -48.5h-396q-115 0 -159.5 50.5t-44.5 146.5zM291 236 q0 -70 59 -70h324q59 0 59 72v585q0 72 -59 72h-326q-57 0 -57 -72v-587z" />
<glyph unicode="&#x432;" horiz-adv-x="1011" d="M47 895v168h653q113 0 159 -48t46 -147v-172q0 -53 -32.5 -90t-73.5 -41v-8q129 -20 129 -164v-198q0 -94 -39 -144.5t-154 -50.5h-686v166h115v729h-117zM348 166h332q63 0 63 82v145q0 43 -12 63.5t-51 20.5h-332v-311zM348 621h305q70 0 70 77v119q0 78 -70 78h-305 v-274z" />
<glyph unicode="&#x433;" horiz-adv-x="841" d="M51 0v166h113v729h-113v168h768v-363h-168v195h-303v-729h115v-166h-412z" />
<glyph unicode="&#x434;" horiz-adv-x="1044" d="M4 166h127l186 729h-112v168h799v-168h-117v-729h137v-451h-178v285h-668v-285h-174v451zM313 166h392v729h-211z" />
<glyph unicode="&#x435;" horiz-adv-x="978" d="M106 166v680q0 217 224 217h354q113 0 159 -45t46 -150v-424h-598v-206q0 -37 12 -54.5t51 -17.5h289q61 0 62 72v57h184v-100q0 -195 -189 -195h-415q-88 0 -133.5 45t-45.5 121zM291 598h414v231q0 37 -11.5 51.5t-44.5 14.5h-297q-61 0 -61 -59v-238z" />
<glyph unicode="&#x436;" horiz-adv-x="1478" d="M12 0v166h109v244q0 106 43 158.5t188 52.5h35l-242 274h-106v168h377v-168h-60l291 -322h6v322h-108v168h393v-168h-111v-322h7l288 322h-57v168h375v-168h-105l-241 -274h30q145 0 187.5 -51.5t42.5 -159.5v-244h114v-166h-374v166h80v219q0 47 -12.5 69.5t-55.5 22.5 h-279v-311h121v-166h-416v166h121v311h-282q-43 0 -56.5 -21.5t-13.5 -70.5v-219h86v-166h-375z" />
<glyph unicode="&#x437;" horiz-adv-x="874" d="M72 0v307h164v-141h317q29 0 43 14.5t16 27.5t2 40v137q0 31 -2 45t-16 26.5t-43 12.5h-242v158h213q33 0 49.5 11t19.5 23.5t3 40.5v113q0 84 -68 84h-288v-170h-162v334h495q117 0 162 -48t45 -147v-166q0 -55 -32.5 -95t-77.5 -44v-6q131 -20 131 -147v-215 q0 -94 -37 -144.5t-154 -50.5h-538z" />
<glyph unicode="&#x438;" horiz-adv-x="1091" d="M51 0v166h113v729h-113v168h410v-168h-113v-565h4l381 733h311v-168h-112v-729h112v-166h-409v166h113v567h-5l-381 -733h-311z" />
<glyph unicode="&#x439;" horiz-adv-x="1091" d="M51 0v166h113v729h-113v168h410v-168h-113v-565h4l381 733h311v-168h-112v-729h112v-166h-409v166h113v567h-5l-381 -733h-311zM254 1468h139q0 -106 23.5 -134.5t138.5 -28.5t139.5 28.5t24.5 134.5h137q0 -170 -53 -233.5t-247 -63.5t-248 63.5t-54 233.5z" />
<glyph unicode="&#x43a;" horiz-adv-x="1028" d="M51 0v166h111v729h-111v168h404v-168h-109v-328h4l305 328h-75v168h393v-168h-109l-262 -274h68q133 0 181 -50.5t48 -160.5v-244h113v-166h-414v166h119v207q0 33 -3 52t-22.5 32.5t-56.5 13.5h-289v-305h119v-166h-414z" />
<glyph unicode="&#x43b;" horiz-adv-x="1058" d="M-18 0v166h108q80 0 98 113l107 616h-117v168h830v-168h-111v-729h111v-166h-410v166h117v729h-248l-102 -641q-16 -109 -79 -181.5t-157 -72.5h-147z" />
<glyph unicode="&#x43c;" horiz-adv-x="1320" d="M51 0v166h113v729h-113v168h369l252 -565l231 565h367v-168h-113v-729h113v-166h-416v166h123v649h-6l-242 -565h-123l-256 565h-4v-649h121v-166h-416z" />
<glyph unicode="&#x43d;" horiz-adv-x="1091" d="M51 0v166h113v729h-113v168h410v-168h-113v-262h400v262h-113v168h409v-168h-112v-729h112v-166h-409v166h113v299h-400v-299h113v-166h-410z" />
<glyph unicode="&#x43e;" horiz-adv-x="1024" d="M111 197v671q0 195 204 195h392q123 0 165.5 -48t42.5 -147v-671q0 -100 -42 -148.5t-162 -48.5h-396q-113 0 -158.5 50.5t-45.5 146.5zM291 236q0 -23 3 -35.5t16.5 -23.5t39.5 -11h324q59 0 59 72v585q0 72 -59 72h-324q-59 0 -59 -72v-587z" />
<glyph unicode="&#x43f;" horiz-adv-x="1091" d="M51 0v166h113v729h-113v168h993v-168h-112v-729h112v-166h-409v166h113v729h-400v-729h113v-166h-410z" />
<glyph unicode="&#x440;" horiz-adv-x="1013" d="M35 -256h117v1151h-117v168h678q207 0 207 -195v-671q0 -96 -45.5 -146.5t-161.5 -50.5h-377v-256h119v-168h-420v168zM336 166h344q55 0 55 72v585q0 72 -55 72h-344v-729z" />
<glyph unicode="&#x441;" horiz-adv-x="894" d="M102 195v673q0 195 209 195h506v-334h-166v172h-297q-68 0 -67 -86v-567q0 -33 18.5 -57.5t48.5 -24.5h308v141h165v-307h-532q-193 0 -193 195z" />
<glyph unicode="&#x442;" horiz-adv-x="888" d="M23 700v363h843v-363h-166v195h-163v-729h118v-166h-426v166h123v729h-164v-195h-165z" />
<glyph unicode="&#x443;" horiz-adv-x="1021" d="M0 895v168h416v-168h-94l196 -625l205 625h-111v168h410v-168h-117l-444 -1325h-176l143 432l-297 893h-131z" />
<glyph unicode="&#x444;" horiz-adv-x="1320" d="M102 197v671q0 195 205 195h266v377h-139v168h316v-545h264q119 0 162 -48t43 -147v-671q0 -100 -42 -148.5t-165 -48.5h-262v-256h118v-168h-407v168h112v256h-266q-111 0 -158 50.5t-47 146.5zM285 236q0 -23 2 -35.5t15 -23.5t38 -11h231v729h-231q-55 0 -55 -72v-587 zM748 166h225q59 0 59 72v585q0 72 -59 72h-225v-729z" />
<glyph unicode="&#x445;" horiz-adv-x="917" d="M2 0v166h135l217 381l-200 348h-136v168h314v-117l125 -219l125 219v117h305v-168h-135l-195 -342l223 -387h135v-166h-313v117l-147 254l-144 -254v-117h-309z" />
<glyph unicode="&#x446;" horiz-adv-x="1091" d="M51 0v166h113v729h-113v168h412v-168h-115v-729h397v729h-122v168h421v-168h-112v-729h133v-451h-184v285h-830z" />
<glyph unicode="&#x447;" horiz-adv-x="1013" d="M4 895v168h381v-168h-86v-217q0 -63 57 -64h318v281h-101v168h396v-168h-109v-729h109v-166h-430v166h135v283h-344q-125 0 -170 52t-45 148v246h-111z" />
<glyph unicode="&#x448;" horiz-adv-x="1576" d="M51 0v166h113v729h-113v168h393v-168h-96v-729h352v729h-98v168h377v-168h-96v-729h354v729h-98v168h393v-168h-111v-729h111v-166h-1481z" />
<glyph unicode="&#x449;" horiz-adv-x="1576" d="M51 0v166h113v729h-113v168h393v-168h-96v-729h352v729h-98v168h377v-168h-96v-729h354v729h-98v168h393v-168h-111v-729h133v-451h-174v285h-1329z" />
<glyph unicode="&#x44a;" horiz-adv-x="1150" d="M18 700v363h644v-168h-123v-250h374q117 0 157 -45t40 -149v-256q0 -98 -37 -146.5t-155 -48.5h-672v166h108v729h-172v-195h-164zM539 166h317q33 0 48.5 14.5t17.5 27.5t2 40v149q0 31 -2 44.5t-17.5 26.5t-48.5 13h-317v-315z" />
<glyph unicode="&#x44b;" horiz-adv-x="1411" d="M51 895v168h412v-168h-115v-250h348q117 0 156 -45t39 -149v-256q0 -98 -36 -146.5t-155 -48.5h-647v166h111v729h-113zM348 166h291q33 0 48 14.5t17.5 27.5t2.5 40v149q0 31 -2.5 44.5t-17.5 26.5t-48 13h-291v-315zM963 0v166h108v729h-108v168h399v-168h-115v-729 h115v-166h-399z" />
<glyph unicode="&#x44c;" horiz-adv-x="944" d="M51 895v168h412v-168h-115v-250h371q117 0 156.5 -45t39.5 -149v-256q0 -98 -35.5 -146.5t-156.5 -48.5h-670v166h111v729h-113zM348 166h316q33 0 48 14.5t17 27.5t2 40v149q0 31 -2 44.5t-17.5 26.5t-47.5 13h-316v-315z" />
<glyph unicode="&#x44d;" horiz-adv-x="894" d="M72 0v307h166v-141h294q68 0 68 82v221h-289v158h289v188q0 84 -68 84h-294v-170h-166v334h506q111 0 158.5 -48t47.5 -147v-673q0 -195 -190 -195h-522z" />
<glyph unicode="&#x44e;" horiz-adv-x="1443" d="M51 0v166h111v729h-111v168h402v-168h-105v-262h182v235q0 195 205 195h393q121 0 164 -48t43 -147v-671q0 -100 -42 -148.5t-163 -48.5h-395q-113 0 -159 50t-46 147v268h-182v-299h105v-166h-402zM713 236q0 -23 2 -35.5t16 -23.5t39 -11h326q57 0 57 72v585 q0 72 -57 72h-326q-57 0 -57 -72v-587z" />
<glyph unicode="&#x44f;" horiz-adv-x="1026" d="M0 0v166h129v244q0 63 27.5 103t72.5 48v8q-43 2 -69.5 40t-26.5 89v197q0 168 199 168h645v-168h-111v-729h111v-166h-406v166h111v307h-311q-59 0 -60 -84v-223h99v-166h-410zM317 698q0 -27 2.5 -39t17.5 -25t48 -13h297v274h-309q-37 0 -46.5 -19.5t-9.5 -58.5v-119z " />
<glyph unicode="&#x451;" horiz-adv-x="978" d="M106 166v680q0 217 224 217h354q113 0 159 -45t46 -150v-424h-598v-206q0 -37 12 -54.5t51 -17.5h289q61 0 62 72v57h184v-100q0 -195 -189 -195h-415q-88 0 -133.5 45t-45.5 121zM170 1305q0 49 35 85.5t86 36.5q49 0 85 -36.5t36 -85.5q0 -51 -36 -86t-87 -35 q-49 0 -84 35t-35 86zM291 598h414v231q0 37 -11.5 51.5t-44.5 14.5h-297q-61 0 -61 -59v-238zM567 1305q0 49 35 85.5t86 36.5q49 0 84 -36.5t35 -85.5q0 -51 -35 -86t-86 -35q-49 0 -84 35t-35 86z" />
<glyph unicode="&#x452;" horiz-adv-x="1058" d="M14 1067v168h138v231h-138v168h320v-399h373v-168h-373v-238h387q119 0 164 -48t45 -146v-725q0 -121 -43 -173t-152 -52h-147v159h80q49 0 64.5 18.5t15.5 57.5v649q0 94 -68 95h-346v-498h115v-166h-418v166h121v901h-138z" />
<glyph unicode="&#x453;" horiz-adv-x="841" d="M51 0v166h113v729h-113v168h768v-363h-168v195h-303v-729h115v-166h-412zM279 1247l278 385h207l-318 -385h-167z" />
<glyph unicode="&#x454;" horiz-adv-x="894" d="M113 195v673q0 98 47 146.5t159 48.5h504v-334h-166v170h-292q-68 0 -68 -84v-188h289v-158h-289v-221q0 -82 68 -82h292v141h166v-307h-520q-190 0 -190 195z" />
<glyph unicode="&#x455;" horiz-adv-x="894" d="M78 0v322h162v-156h333q45 0 57.5 20.5t12.5 61.5v131q0 66 -53 65h-283q-117 0 -162 51.5t-45 155.5v217q0 94 44 144.5t161 50.5h502v-334h-152v170h-305q-68 0 -67 -84v-108q0 -53 12 -74t57 -21h277q111 0 154.5 -48t43.5 -132v-237q0 -195 -190 -195h-559z" />
<glyph unicode="&#x456;" horiz-adv-x="512" d="M53 -2v166h123v727h-119v172h303v-899h113v-166h-420zM135 1305q0 49 35 85.5t86 36.5q49 0 85 -36.5t36 -85.5q0 -51 -36 -86t-87 -35q-49 0 -84 35t-35 86z" />
<glyph unicode="&#x457;" horiz-adv-x="512" d="M-51 1305q0 49 34.5 85.5t86.5 36.5q49 0 83.5 -36.5t34.5 -85.5q0 -51 -34.5 -86t-85.5 -35q-49 0 -84 35t-35 86zM53 -2v166h123v727h-119v172h303v-899h113v-166h-420zM330 1305q0 49 34.5 85.5t86.5 36.5q49 0 83.5 -36.5t34.5 -85.5q0 -51 -34.5 -86t-85.5 -35 q-49 0 -84 35t-35 86z" />
<glyph unicode="&#x458;" horiz-adv-x="442" d="M2 -276h78q49 0 64.5 19t15.5 58v1094h-123v168h307v-1274q0 -119 -44 -171t-150 -52h-148v158zM127 1303q0 49 35 84.5t86 35.5q49 0 84 -35.5t35 -85t-35 -84t-84 -36.5q-49 0 -84 35t-37 86z" />
<glyph unicode="&#x459;" horiz-adv-x="1538" d="M-18 0v166h108q80 0 98 113l107 616h-117v168h834v-168h-115v-262h371q117 0 156.5 -44t39.5 -151v-243q0 -98 -36.5 -146.5t-155.5 -48.5h-674v166h117v729h-248l-102 -641q-16 -109 -79 -181.5t-157 -72.5h-147zM897 166h315q33 0 47.5 14.5t17.5 27.5t3 40v137 q0 31 -3 45t-17.5 26.5t-47.5 12.5h-315v-303z" />
<glyph unicode="&#x45a;" horiz-adv-x="1570" d="M51 0v166h113v729h-113v168h410v-168h-113v-262h400v262h-113v168h412v-168h-115v-262h371q117 0 156.5 -44t39.5 -151v-243q0 -98 -36 -146.5t-156 -48.5h-672v166h113v299h-400v-299h113v-166h-410zM932 166h315q33 0 48.5 14.5t17.5 27.5t2 40v137q0 31 -2 45 t-17.5 26.5t-48.5 12.5h-315v-303z" />
<glyph unicode="&#x45b;" horiz-adv-x="1058" d="M14 1067v168h138v231h-138v168h320v-399h373v-168h-373v-238h387q119 0 164 -48t45 -146v-469h108v-166h-409v166h119v403q0 94 -68 95h-346v-498h115v-166h-418v166h121v901h-138z" />
<glyph unicode="&#x45c;" horiz-adv-x="1028" d="M51 0v166h111v729h-111v168h404v-168h-109v-328h4l305 328h-75v168h393v-168h-109l-262 -274h68q133 0 181 -50.5t48 -160.5v-244h113v-166h-414v166h119v207q0 33 -3 52t-22.5 32.5t-56.5 13.5h-289v-305h119v-166h-414zM348 1247l281 385h205l-318 -385h-168z" />
<glyph unicode="&#x45e;" horiz-adv-x="1021" d="M0 895v168h416v-168h-94l196 -625l205 625h-111v168h410v-168h-117l-444 -1325h-176l143 432l-297 893h-131zM236 1468h137q0 -106 24.5 -134.5t139 -28.5t139 28.5t24.5 134.5h138q0 -170 -53.5 -233.5t-247 -63.5t-247.5 63.5t-54 233.5z" />
<glyph unicode="&#x45f;" horiz-adv-x="1069" d="M51 0v166h113v729h-113v168h412v-168h-115v-729h400v729h-113v168h409v-168h-112v-729h112v-166h-405v-285h-184v285h-404z" />
<glyph unicode="&#x490;" horiz-adv-x="1075" d="M49 0v170h141v1294h-141v170h799v314h182v-484h-641v-1294h143v-170h-483z" />
<glyph unicode="&#x491;" horiz-adv-x="841" d="M51 0v166h113v729h-113v168h600v192h168v-360h-471v-729h115v-166h-412z" />
<glyph unicode="&#x2000;" horiz-adv-x="1048" />
<glyph unicode="&#x2001;" horiz-adv-x="2099" />
<glyph unicode="&#x2002;" horiz-adv-x="1048" />
<glyph unicode="&#x2003;" horiz-adv-x="2099" />
<glyph unicode="&#x2004;" horiz-adv-x="698" />
<glyph unicode="&#x2005;" horiz-adv-x="524" />
<glyph unicode="&#x2006;" horiz-adv-x="348" />
<glyph unicode="&#x2007;" horiz-adv-x="348" />
<glyph unicode="&#x2008;" horiz-adv-x="262" />
<glyph unicode="&#x2009;" horiz-adv-x="419" />
<glyph unicode="&#x200a;" horiz-adv-x="114" />
<glyph unicode="&#x2011;" horiz-adv-x="776" d="M96 489v160h602v-160h-602z" />
<glyph unicode="&#x2012;" horiz-adv-x="776" d="M96 489v160h602v-160h-602z" />
<glyph unicode="&#x2013;" horiz-adv-x="1167" d="M6 489v160h1159v-160h-1159z" />
<glyph unicode="&#x2014;" horiz-adv-x="2334" d="M6 489v160h2308v-160h-2308z" />
<glyph unicode="&#x2018;" horiz-adv-x="464" d="M33 1130l186 504h117l-141 -504h-162z" />
<glyph unicode="&#x2019;" horiz-adv-x="464" d="M74 1130l143 504h162l-189 -504h-116z" />
<glyph unicode="&#x201a;" horiz-adv-x="464" d="M96 -231l142 503h163l-186 -503h-119z" />
<glyph unicode="&#x201c;" horiz-adv-x="774" d="M37 1130l186 504h117l-141 -504h-162zM338 1130l190 504h117l-143 -504h-164z" />
<glyph unicode="&#x201d;" horiz-adv-x="774" d="M51 1130l144 504h161l-186 -504h-119zM354 1130l144 504h159l-186 -504h-117z" />
<glyph unicode="&#x201e;" horiz-adv-x="774" d="M96 -231l142 503h163l-186 -503h-119zM399 -231l142 503h161l-186 -503h-117z" />
<glyph unicode="&#x2020;" d="M82 895v170h422v569h190v-569h422v-170h-422v-1323h-190v1323h-422z" />
<glyph unicode="&#x2021;" d="M82 123v172h422v600h-422v170h422v569h190v-569h422v-170h-422v-600h422v-172h-422v-551h-190v551h-422z" />
<glyph unicode="&#x2022;" horiz-adv-x="962" d="M147 788q0 139 96.5 236.5t239.5 99.5q139 0 236.5 -97t97.5 -239q-2 -141 -99 -239t-235 -98q-139 0 -236.5 98t-99.5 239z" />
<glyph unicode="&#x2026;" horiz-adv-x="2334" d="M186 113q0 49 35 84.5t86 35.5q49 0 85 -35.5t36 -84.5q0 -51 -36 -87t-87 -36q-49 0 -84 36t-35 87zM1028 113q0 49 35 84.5t86 35.5q49 0 84 -35.5t35 -84.5q0 -51 -35 -87t-86 -36q-49 0 -84 36t-35 87zM1868 113q0 49 34.5 84.5t86.5 35.5q49 0 83.5 -35.5 t34.5 -84.5q0 -51 -34.5 -87t-85.5 -36q-49 0 -84 36t-35 87z" />
<glyph unicode="&#x202f;" horiz-adv-x="419" />
<glyph unicode="&#x2030;" horiz-adv-x="2594" d="M143 924v481q0 143 51.5 192.5t192.5 49.5h78q166 0 215 -54.5t49 -220.5v-422q0 -164 -42 -216t-202 -52h-86q-156 0 -206 45t-50 197zM283 952q0 -98 17 -122.5t106 -24.5h57q88 0 107.5 21.5t19.5 111.5v446q0 96 -21.5 117t-122.5 21h-47q-84 0 -100 -26t-16 -126 v-418zM471 -47l735 1708h156l-746 -1708h-145zM1098 233v480q0 141 51 190t194 49h74q168 0 217 -53t49 -221v-424q0 -160 -43 -213t-200 -53h-86q-154 0 -205 46.5t-51 198.5zM1237 256q0 -96 17.5 -119.5t107.5 -23.5h55q88 0 108.5 20.5t20.5 112.5v444q0 96 -22.5 117.5 t-122.5 21.5h-47q-84 0 -100.5 -25.5t-16.5 -125.5v-422zM1868 233v480q0 141 51 190t195 49h73q168 0 217.5 -53t49.5 -221v-424q0 -160 -43.5 -213t-198.5 -53h-88q-154 0 -205 46.5t-51 198.5zM2007 256q0 -96 18.5 -119.5t106.5 -23.5h55q90 0 109.5 20.5t19.5 112.5 v444q0 96 -22.5 117.5t-122.5 21.5h-47q-84 0 -100.5 -25.5t-16.5 -125.5v-422z" />
<glyph unicode="&#x2039;" horiz-adv-x="497" d="M68 537l268 387l96 -68l-217 -319l217 -293l-96 -72z" />
<glyph unicode="&#x203a;" horiz-adv-x="497" d="M82 254l207 301l-207 283l90 69l258 -350l-254 -369z" />
<glyph unicode="&#x205f;" horiz-adv-x="524" />
<glyph unicode="&#x2116;" horiz-adv-x="2052" d="M53 0v170h137v1294h-137v170h336l619 -1251v1081h-138v170h476v-170h-140v-1464h-198l-619 1251v-1081h139v-170h-475zM1337 0v127h586v-127h-586zM1337 485v316q0 143 51.5 191t194.5 48h74q168 0 217 -53t49 -221v-260q0 -160 -43 -213t-199 -53h-86q-156 0 -207 46.5 t-51 198.5zM1479 510q0 -98 17 -121.5t106 -23.5h55q90 0 109.5 20.5t19.5 112.5v282q0 96 -22.5 117t-123.5 21h-45q-84 0 -100 -26t-16 -126v-256z" />
<glyph unicode="&#x2122;" horiz-adv-x="1865" d="M88 1323v311h649v-311h-131v188h-123v-745h113v-123h-367v123h115v745h-127v-188h-129zM819 643v123h80v745h-80v123h248l246 -567l248 567h229v-123h-82v-745h82v-123h-305v123h84v592l-211 -477h-96l-222 481v-596h84v-123h-305z" />
<glyph unicode="&#x2260;" horiz-adv-x="1865" d="M102 808q0 345 246 588.5t591 243.5t589 -243.5t244 -589.5t-245 -591t-591 -243q-346 0 -590 245t-244 590zM244 807q-4 -287 200.5 -490.5t491.5 -203.5t490.5 202.5t203.5 489.5q0 285 -203.5 489.5t-488.5 204.5q-287 0 -490.5 -202.5t-203.5 -489.5zM643 319v127h80 v742h-80v127h469q90 0 124 -42t34 -149v-190q0 -98 -38 -134t-130 -36h-238v-318h90v-127h-311zM864 885h215q35 0 43 13t8 48v189q0 53 -40 53h-226v-303z" />
<glyph unicode="&#x2264;" d="M115 565v183l983 -484v-174zM115 903v182l983 469v-172l-795 -387l795 -393v-172z" />
<glyph unicode="&#x2265;" d="M115 90v174l983 484v-183zM115 430v172l792 393l-792 387v172l983 -469v-182z" />
<glyph unicode="&#xe000;" horiz-adv-x="1065" d="M0 1065h1065v-1065h-1065v1065z" />
<glyph horiz-adv-x="1167" />
<glyph horiz-adv-x="776" d="M96 489v160h602v-160h-602z" />
</font>
</defs>
</svg>
