<?xml version="1.0" standalone="no"?>
<!DOCTYPE svg PUBLIC "-//W3C//DTD SVG 1.1//EN" "http://www.w3.org/Graphics/SVG/1.1/DTD/svg11.dtd" >
<svg xmlns="http://www.w3.org/2000/svg">
<metadata>
This is a custom SVG webfont generated by Font Squirrel.
Copyright   : Copyright c 1996 DoubleAlex Team All rights reserved
Foundry     : ParaType Inc
</metadata>
<defs>
<font id="ColiseumBold" horiz-adv-x="1253" >
<font-face units-per-em="2048" ascent="1638" descent="-410" />
<missing-glyph horiz-adv-x="622" />
<glyph horiz-adv-x="2334" />
<glyph horiz-adv-x="2334" />
<glyph unicode=" "  horiz-adv-x="622" />
<glyph unicode="&#x09;" horiz-adv-x="622" />
<glyph unicode="&#xa0;" horiz-adv-x="622" />
<glyph unicode="!" horiz-adv-x="528" d="M188 117q0 51 37 89t90 38q51 0 87 -37t38 -88q0 -51 -36.5 -88t-88 -37t-89.5 37t-38 86zM240 399v1235h147v-1235h-147z" />
<glyph unicode="&#x22;" horiz-adv-x="823" d="M72 1573q-10 61 30.5 111.5t116.5 50.5q88 0 119 -52.5t22 -109.5l-110 -600h-64zM483 1573q-12 61 29 111.5t119 50.5q88 0 118.5 -52.5t20.5 -109.5l-108 -600h-64z" />
<glyph unicode="#" horiz-adv-x="1542" d="M98 496v227h316l24 223h-291v232h322l63 458h240l-65 -458h229l61 458h236l-64 -458h275v-232h-305l-33 -223h285v-227h-312l-73 -498h-234l74 498h-230l-69 -498h-236l70 498h-283zM645 723h232l28 223h-227z" />
<glyph unicode="$" d="M168 1071v166q0 195 55 276q84 121 281 121h92v146h115v-146h424v-456h-238v239h-186v-471h112q172 0 258 -115q59 -80 60 -266v-180q0 -94 -9.5 -140t-37.5 -95q-90 -150 -316 -150h-67v-152h-115v152h-420v463h244v-246h176v481l-84 2q-147 6 -225 58q-53 39 -81 98 t-33 102t-5 113zM420 1133q0 -104 23.5 -145.5t105.5 -41.5h47v471h-45q-84 -10 -107.5 -50t-23.5 -150v-84zM711 217h59q63 0 95 37t32 168v82q0 111 -24.5 152.5t-102.5 41.5h-59v-481z" />
<glyph unicode="%" horiz-adv-x="1830" d="M57 860v463q0 174 49.5 248t221.5 74h133q80 0 134 -21.5t77.5 -62.5t32 -78t8.5 -92l2 -523q0 -152 -55.5 -208t-208.5 -56h-148q-119 0 -182.5 51t-63.5 205zM231 889q0 -90 17.5 -113.5t83.5 -23.5h88q82 0 101.5 25.5t19.5 117.5v479q0 74 -23.5 98.5t-81.5 24.5h-71 q-80 0 -107 -23.5t-27 -105.5v-479zM446 0l775 1634h165l-776 -1634h-164zM1120 246v465q0 172 49.5 245.5t219.5 73.5h135q82 0 136 -21.5t77.5 -62.5t32 -78t8.5 -90v-524q0 -152 -55.5 -208t-206.5 -56h-150q-119 0 -182.5 52t-63.5 204zM1294 276q0 -92 17.5 -115.5 t83.5 -23.5h88q82 0 101.5 25.5t19.5 118.5v481q0 72 -24 96.5t-79 24.5h-74q-80 0 -106.5 -23.5t-26.5 -105.5v-478z" />
<glyph unicode="&#x26;" horiz-adv-x="1445" d="M70 467q0 82 102 180l258 254l-197 199v266q0 141 67 204.5t232 63.5h156q143 0 199 -32q66 -35 82 -90.5t16 -155.5v-256l-207 -199l219 -221l160 154l162 -170l-152 -158l324 -330l-172 -176l-334 338l-256 -256q-96 -96 -174 -96q-35 0 -84 30q-68 45 -135 115 l-180 182q-86 91 -86 154zM340 479l223 -225l258 252l-221 223zM477 1206l133 -135l138 135v211h-271v-211z" />
<glyph unicode="'" horiz-adv-x="479" d="M96 1573q-12 61 29 111.5t119 50.5q88 0 118.5 -52.5t20.5 -109.5l-111 -600h-61z" />
<glyph unicode="(" horiz-adv-x="479" d="M84 246v719q0 242 45 356q78 201 274 319v-288q-90 -106 -90 -463v-643q0 -119 15.5 -202t32 -115.5t42.5 -73.5v-308q-137 86 -219 222q-55 94 -77.5 198.5t-22.5 278.5z" />
<glyph unicode=")" horiz-adv-x="479" d="M70 -145q29 41 45 73.5t31.5 115.5t15.5 202v643q0 356 -92 463v288q197 -119 276 -319q43 -115 43 -356v-719q0 -174 -21.5 -278.5t-78.5 -198.5q-82 -135 -219 -222v308z" />
<glyph unicode="*" horiz-adv-x="675" d="M35 1198l213 117l-211 125l45 71l213 -122v245h88v-245l207 122l43 -79l-211 -117l211 -117l-43 -78l-207 119v-244h-88v244l-213 -119z" />
<glyph unicode="+" d="M18 555v176h517v549h176v-549h518v-176h-518v-485h-176v485h-517z" />
<glyph unicode="," horiz-adv-x="430" d="M-90 -440l240 676h217l-312 -676h-145z" />
<glyph unicode="-" horiz-adv-x="770" d="M68 479v174h645v-174h-645z" />
<glyph unicode="." horiz-adv-x="430" d="M90 121q0 51 37 88t90 37q51 0 89 -37t38 -88q0 -53 -37 -90t-88 -37q-53 0 -89 37t-40 90z" />
<glyph unicode="/" horiz-adv-x="931" d="M-6 0l723 1634h227l-727 -1634h-223z" />
<glyph unicode="0" d="M98 453v677q0 147 11.5 230.5t54.5 154t130 98t228 27.5h228q133 0 215 -27.5t120.5 -95t52 -145.5t13.5 -209v-757q0 -240 -83 -326t-333 -86h-252q-127 0 -205.5 28.5t-117.5 95t-50.5 140.5t-11.5 195zM360 424q0 -139 40 -176t173 -37h109q178 0 199 86q8 41 8 147 v775q0 117 -42 159.5t-140 42.5h-146q-133 0 -167 -52t-34 -191v-754z" />
<glyph unicode="1" d="M289 1184v221l514 264v-1452h137v-217h-534v217h139v1098z" />
<glyph unicode="2" d="M131 0v561l729 455v207q0 127 -34.5 160.5t-143.5 33.5h-111q-115 0 -148.5 -41t-33.5 -153v-113h-258v164q0 195 108.5 277.5t311.5 82.5h162q203 0 304 -67.5t101 -263.5v-406l-729 -453v-227h471v211h258v-428h-987z" />
<glyph unicode="3" d="M123 348v88h254l-4 -67q-2 -88 32.5 -120t135.5 -32h147q106 0 136 37t30 145v131q0 80 -6 99q-16 51 -55 64.5t-105 13.5h-305v221l430 489h-436v-207h-254v424h993v-198l-428 -508l125 -4q172 -2 236.5 -96.5t64.5 -260.5v-211q0 -356 -371 -356h-270q-350 0 -350 348z " />
<glyph unicode="4" d="M70 469v254l657 913h272v-948h181v-219h-181v-469h-254v469h-675zM311 688h434l19 662z" />
<glyph unicode="5" d="M139 340v164h262l-2 -154q-2 -84 43 -108.5t140 -24.5h92q125 0 160.5 39t35.5 201v159q0 113 -31.5 152t-158.5 39h-508v827h909v-217h-651v-387h322q121 0 199.5 -28.5t113.5 -84t46 -111.5t11 -142v-312q0 -352 -370 -352h-236q-184 0 -280.5 78t-96.5 262z" />
<glyph unicode="6" d="M135 1186q0 147 21.5 233t81 137.5t144.5 67.5t232 16h142q178 0 275 -83.5t97 -237.5v-133h-256v76q0 102 -42 130.5t-150 28.5h-119q-59 0 -94 -16t-49.5 -52t-16.5 -60.5t-2 -73.5v-17v-280l355 -2q213 -2 293.5 -91.5t80.5 -310.5v-172q0 -193 -100 -272.5 t-299 -79.5h-217q-211 0 -293 93t-82 314zM397 356q0 -94 36 -119.5t147 -25.5h131q92 0 126.5 38t34.5 154v113q0 70 -10 109t-43 55t-60.5 18t-96.5 2h-263z" />
<glyph unicode="7" d="M123 1202v432h1014v-217l-596 -1417h-281l606 1417h-485v-215h-258z" />
<glyph unicode="8" d="M131 553q-2 141 41 196.5t195 79.5q-131 10 -182.5 64.5t-51.5 228.5v172q0 195 95.5 270.5t299.5 75.5h162q82 0 135.5 -4t113.5 -22.5t95 -55t58.5 -102t23.5 -160.5v-186q0 -123 -25.5 -183.5t-111.5 -82.5q-16 -6 -102 -17q70 -10 106 -16q82 -25 107.5 -82 t25.5 -164v-231q0 -195 -92 -267.5t-287 -72.5h-200q-215 0 -308.5 80t-95.5 274zM385 395q0 -66 14.5 -105.5t47 -56t58 -19.5t73.5 -3h90q115 0 153.5 36t38.5 146v135q0 53 -4 81t-20.5 58.5t-53.5 43t-100 12.5l-117 4q-100 2 -138 -44t-40 -148zM385 1120 q0 -66 10.5 -103.5t40 -54t54 -20.5t77.5 -4l123 -2q109 -2 139.5 37t30.5 143v156q0 102 -43 132t-139 30h-100q-125 0 -157 -31t-34 -131z" />
<glyph unicode="9" d="M123 338v111h256l-2 -76q-4 -104 40 -132t154 -28h99q119 0 150.5 42t31.5 224v234h-354q-209 0 -292 88t-83 268v219q0 195 99.5 273.5t297.5 78.5h248q180 0 263 -94t83 -282v-836q0 -242 -82 -338t-327 -96h-189q-201 0 -297 80t-96 264zM377 1118q-4 -127 40 -155.5 t173 -28.5h262v344q0 90 -36 117.5t-144 27.5h-133q-104 0 -131 -38.5t-29 -151.5z" />
<glyph unicode=":" horiz-adv-x="528" d="M164 115q0 51 36 87t87 36q53 0 91 -36t38 -87q2 -51 -35 -89t-92 -38q-51 0 -88 37t-37 90zM164 950q0 51 36 87t87 36q53 0 91 -36t38 -87q0 -53 -38 -90t-89 -37t-88 37t-37 90z" />
<glyph unicode=";" horiz-adv-x="528" d="M-51 -438l237 674h220l-316 -674h-141zM178 948q0 51 36 88t87 37t89 -36t38 -87q0 -53 -37 -91t-88 -38t-88 38t-37 89z" />
<glyph unicode="&#x37e;" horiz-adv-x="528" d="M-51 -438l237 674h220l-316 -674h-141zM178 948q0 51 36 88t87 37t89 -36t38 -87q0 -53 -37 -91t-88 -38t-88 38t-37 89z" />
<glyph unicode="&#x3c;" d="M12 700v232l1217 571v-239l-938 -447l938 -444v-238z" />
<glyph unicode="=" d="M0 338v240h1255v-240h-1255zM0 772v240h1255v-240h-1255z" />
<glyph unicode="&#x3e;" d="M14 135v238l938 444l-938 447v239l1217 -571v-232z" />
<glyph unicode="?" d="M154 1110v164q0 195 108.5 277.5t310.5 82.5h162q203 0 304.5 -67.5t101.5 -263.5v-281q0 -209 -88 -280.5t-310 -71.5h-73v-271h-258v488h471v336q0 127 -34 160.5t-144 33.5h-109q-115 0 -148.5 -41t-33.5 -153v-113h-260zM428 119q0 51 36 88t87 37t89 -37t38 -88 t-37 -88t-88 -37q-53 0 -89 36t-36 89z" />
<glyph unicode="@" horiz-adv-x="2072" d="M156 563q0 272 127 520t362.5 407t523.5 159q322 0 533 -217.5t211 -552.5q0 -285 -158 -507t-348 -222q-61 0 -122.5 39.5t-74.5 142.5q-117 -176 -290 -176q-131 0 -224.5 108.5t-93.5 304.5q0 264 163 460t353 196q70 0 123 -27q76 -41 117 -143l26 108h172l-88 -405 q-70 -301 -69 -389q0 -66 55 -66q92 0 201.5 171t109.5 413q0 270 -174 448t-428 178q-119 0 -231.5 -43t-165.5 -81.5t-94 -77.5q-141 -137 -223 -346t-82 -412q0 -305 198.5 -502.5t540.5 -200.5q424 0 725 314l86 -107q-147 -154 -346 -241q-225 -102 -494 -103 q-414 0 -667.5 229.5t-253.5 620.5zM823 500q0 -90 31 -135q41 -59 109 -60q76 0 142 78t105 183.5t58.5 205.5t15.5 160q-4 90 -49 130t-94 40q-86 0 -163 -111.5t-116 -250t-39 -240.5z" />
<glyph unicode="A" horiz-adv-x="1296" d="M0 0v217h129l340 1417h393l309 -1417h127v-217h-362l-102 520h-373l-107 -520h-354zM502 733h293l-140 733z" />
<glyph unicode="B" horiz-adv-x="1296" d="M51 0v217h135v1200h-135v217h719q238 0 335 -79.5t97 -268.5v-104q0 -143 -44 -214t-171 -104q137 -57 175 -110.5t38 -202.5v-162q0 -225 -90 -307t-322 -82h-737zM444 217h314q119 0 153.5 37t34.5 160v121q0 145 -40 183t-158 38h-304v-539zM444 967h299 q119 0 160 31.5t41 148.5v104q0 96 -36 131t-158 35h-306v-450z" />
<glyph unicode="C" horiz-adv-x="1157" d="M104 406v780q0 229 76 338.5t291 109.5h594v-481h-252v264h-264q-119 0 -148.5 -40t-29.5 -165v-788q0 -72 3 -97.5t17.5 -58t51 -42t104.5 -9.5h282v293h250v-510h-608q-207 0 -287 98.5t-80 307.5z" />
<glyph unicode="D" horiz-adv-x="1296" d="M49 0v217h135v1200h-135v217h785q211 0 286.5 -105.5t75.5 -295.5v-830q0 -221 -90 -312t-318 -91h-739zM440 217h316q123 0 150.5 40t27.5 173v760q0 143 -27.5 185t-156.5 42h-310v-1200z" />
<glyph unicode="E" horiz-adv-x="1206" d="M51 0v217h133v1200h-133v217h1084v-479h-240v262h-451v-473h486v-223h-486v-504h467v301h238v-518h-1098z" />
<glyph unicode="F" horiz-adv-x="1058" d="M47 0v217h135v1200h-135v217h1014v-483h-240v266h-377v-485h471v-225h-471v-490h138v-217h-535z" />
<glyph unicode="G" d="M106 422v803q0 223 99.5 316t277.5 93h633v-477h-235v260h-314q-135 0 -166.5 -52t-31.5 -208v-694q0 -162 30.5 -204t167.5 -42h314v485h-271v230h523v-932h-627q-217 0 -308.5 98.5t-91.5 323.5z" />
<glyph unicode="H" horiz-adv-x="1347" d="M51 0v217h135v1200h-135v217h393v-704h467v704h394v-217h-138v-1200h138v-217h-394v705h-467v-705h-393z" />
<glyph unicode="I" horiz-adv-x="626" d="M49 0v217h137v1200h-137v217h533v-217h-138v-1200h138v-217h-533z" />
<glyph unicode="J" horiz-adv-x="770" d="M0 0v217h156q131 0 161.5 39t30.5 215v946h-137v217h537v-217h-142v-1057q0 -201 -89 -280.5t-263 -79.5h-254z" />
<glyph unicode="K" horiz-adv-x="1296" d="M49 0v217h133v1200h-133v217h387v-745l443 745h319v-217h-170l-317 -502h155q152 0 204 -76.5t52 -236.5v-385h133v-217h-389v569q0 86 -29.5 107.5t-148.5 21.5h-252v-698h-387z" />
<glyph unicode="L" horiz-adv-x="1107" d="M51 0v217h137v1200h-137v217h533v-217h-140v-1200h369v324h238v-541h-1000z" />
<glyph unicode="M" horiz-adv-x="1748" d="M39 0v217h139v1200h-139v217h440l393 -886l400 886h440v-217h-135v-1200h135v-217h-383v1241h-6l-367 -788h-188l-338 788h-6v-1241h-385z" />
<glyph unicode="N" horiz-adv-x="1445" d="M49 0v217h135v1186h-135v231h418l582 -1220v1220h368v-217h-137v-1417h-244l-622 1251v-1251h-365z" />
<glyph unicode="O" d="M111 467v754q0 227 78.5 323t291.5 96h277q94 0 153.5 -11t117.5 -50t85 -120t27 -212v-870q0 -209 -88 -296t-297 -87h-250q-109 0 -183.5 20.5t-116.5 53t-63.5 98t-26.5 128t-5 173.5zM373 455q0 -156 24.5 -197t141.5 -41h180q111 0 137.5 48t26.5 190v714 q0 168 -33 214.5t-164 46.5h-100q-139 0 -176 -41t-37 -222v-712z" />
<glyph unicode="P" horiz-adv-x="1167" d="M49 0v217h133v1200h-133v217h715q223 0 299 -85t76 -251v-217q0 -215 -88 -298t-279 -83h-334v-483h140v-217h-529zM438 924h285q98 0 131 35.5t33 152.5v135q0 98 -34 128t-138 30h-277v-481z" />
<glyph unicode="Q" d="M111 467v754q0 227 78.5 323t291.5 96h277q94 0 153.5 -11t117.5 -50t85 -120t27 -212v-870q0 -209 -88 -296t-297 -87h-6v-275h-246v277q-135 0 -217 26.5t-120 94t-47 141.5t-9 209zM373 455q0 -156 24.5 -197t141.5 -41h180q111 0 137.5 48t26.5 190v714 q0 168 -33 214.5t-164 46.5h-100q-139 0 -176 -41t-37 -222v-712z" />
<glyph unicode="R" horiz-adv-x="1347" d="M51 0v217h135v1200h-135v217h721q188 0 282.5 -76.5t94.5 -291.5v-164q0 -119 -36 -178.5t-128 -102.5q125 -23 157 -82t32 -184v-338h139v-217h-400v539q0 98 -41 132t-151 34h-275v-705h-395zM446 928l265 -4h12q106 0 135 32q31 35 31 134v163q0 84 -36 124t-138 40 h-269v-489z" />
<glyph unicode="S" horiz-adv-x="1206" d="M111 0v467h245v-250h279q66 0 94.5 3t59 19.5t41 53.5t10.5 100v137q0 109 -31 139.5t-145 32.5l-207 3q-344 6 -344 350v243q0 336 352 336h600v-450h-246v233h-287q-47 0 -69.5 -3t-48 -19.5t-34.5 -53t-9 -96.5v-127q0 -104 40 -135t144 -31h180q197 0 282 -85 t85 -273v-223q0 -188 -86 -279.5t-281 -91.5h-624z" />
<glyph unicode="T" horiz-adv-x="1206" d="M0 1178v456h1206v-456h-239v239h-236v-1200h135v-217h-530v217h137v1200h-233v-239h-240z" />
<glyph unicode="U" horiz-adv-x="1347" d="M45 1417v217h391v-1138q0 -180 32 -229.5t183 -49.5h105q121 0 146.5 49t25.5 230v1138h393v-217h-135v-1032q0 -201 -97.5 -293t-302.5 -92h-237q-182 0 -276.5 81t-94.5 273v1063h-133z" />
<glyph unicode="V" d="M0 1417v217h344l293 -1431l291 1431h323v-217h-127l-303 -1417h-401l-291 1417h-129z" />
<glyph unicode="W" horiz-adv-x="1927" d="M2 1417v217h348l203 -1280l281 1280h253l316 -1290l186 1290h340v-217h-143l-248 -1417h-248l-323 1311l-310 -1311h-251l-263 1417h-141z" />
<glyph unicode="X" horiz-adv-x="1157" d="M0 0v217h131l305 612l-293 588h-127v217h312l252 -561l270 561h295v-217h-131l-293 -588l307 -612h127v-217h-305l-270 588l-283 -588h-297z" />
<glyph unicode="Y" d="M2 1417v217h295l336 -665l334 665h286v-217h-120l-379 -696v-504h137v-217h-529v217h140v504l-373 696h-127z" />
<glyph unicode="Z" horiz-adv-x="1206" d="M78 0v217l753 1200h-516v-293h-237v510h1040v-217l-762 -1200h547v287h244v-504h-1069z" />
<glyph unicode="[" horiz-adv-x="479" d="M84 -186v1587q0 119 61.5 176t149.5 57h168v-176h-150v-1728h152v-176h-176q-106 0 -155.5 57.5t-49.5 202.5z" />
<glyph unicode="\" horiz-adv-x="931" d="M-10 1634h227l723 -1634h-223zM717 0h223h-223z" />
<glyph unicode="]" horiz-adv-x="479" d="M51 -270h152v1728h-150v176h168q86 0 148.5 -57t62.5 -176v-1587q0 -145 -49 -202.5t-156 -57.5h-176v176z" />
<glyph unicode="^" horiz-adv-x="1687" d="M297 750l451 884h213l430 -884h-273l-268 567l-283 -567h-270z" />
<glyph unicode="_" horiz-adv-x="1157" d="M-23 -172h1205v-117h-1205v117z" />
<glyph unicode="`" horiz-adv-x="626" d="M139 1534h156l188 -336h-147z" />
<glyph unicode="a" horiz-adv-x="1058" d="M66 270q0 86 6 132.5t30.5 99.5t83 76.5t152.5 23.5h324v268h-349v-159h-231v116q0 45 7 79t30.5 78t82 66.5t146.5 22.5h318q236 0 235 -252v-618h127v-203h-633q-168 0 -248.5 52t-80.5 218zM313 190h349v224h-349v-224z" />
<glyph unicode="b" horiz-adv-x="1058" d="M2 1432v202h371v-561h291q176 0 234 -62.5t58 -203.5v-555q0 -45 -10 -84t-35.5 -79t-77 -64.5t-126.5 -24.5h-576v1432h-129zM373 203h338v667h-338v-667z" />
<glyph unicode="c" horiz-adv-x="964" d="M100 279v499q0 156 61.5 225.5t225.5 69.5h502v-379h-234v176h-309v-667h309v186h234v-389h-469q-164 0 -242 58.5t-78 220.5z" />
<glyph unicode="d" horiz-adv-x="1107" d="M100 311v467q0 170 65.5 232.5t240.5 62.5h299v359h-127v202h374v-1431h127v-203h-651q-188 0 -258 60.5t-70 250.5zM346 203h359v667h-359v-667z" />
<glyph unicode="e" horiz-adv-x="1009" d="M102 301v502q0 160 68 218t213 58h270q47 0 78 -3t72 -16t64.5 -38t43 -73t19.5 -115v-371h-590v-266h358v155h232v-125q0 -45 -8.5 -78.5t-33 -73.5t-81.5 -60.5t-143 -20.5h-293q-160 0 -214.5 70.5t-54.5 236.5zM340 643h358v236h-358v-236z" />
<glyph unicode="f" horiz-adv-x="626" d="M43 0v203h129v665h-129v205h133v330q0 231 273 231h139v-217h-172v-344h172v-205h-172v-665h131v-203h-504z" />
<glyph unicode="g" horiz-adv-x="1107" d="M102 266v520q0 170 79 228.5t274 58.5h628v-203h-131v-1009q0 -162 -54 -234.5t-228 -72.5h-285q-131 0 -189.5 54t-58.5 181v90h250v-119h324v240h-293q-172 0 -244 52t-72 214zM346 203h365v667h-365v-667z" />
<glyph unicode="h" horiz-adv-x="1157" d="M39 0v203h131v1229h-131v202h375v-561h280q160 0 231.5 -53t71.5 -213v-604h127v-203h-372v870h-338v-667h121v-203h-496z" />
<glyph unicode="i" horiz-adv-x="577" d="M45 0v203h131v667h-131v203h371v-870h133v-203h-504zM166 1370q0 53 37 92t91 39t94 -39t40 -90q0 -53 -39 -93t-92 -40t-92 39t-39 92z" />
<glyph unicode="j" horiz-adv-x="528" d="M-18 -246h180v1114h-129v205h373v-1257q0 -156 -71 -209t-218 -53h-135v200zM154 1377.5q0 54.5 37.5 92t91 37.5t93.5 -37.5t40 -92t-39 -92.5t-92.5 -38t-92 38t-38.5 92.5z" />
<glyph unicode="k" horiz-adv-x="1073" d="M45 0v203h131v1229h-131v202h371v-1022h4l319 461h277v-203h-150l-172 -239h29q109 0 157 -47t48 -156v-225h133v-203h-373v438h-272v-438h-371z" />
<glyph unicode="l" horiz-adv-x="577" d="M45 0v203h131v1229h-131v202h373v-1431h129v-203h-502z" />
<glyph unicode="m" horiz-adv-x="1736" d="M43 0v203h129v667h-129v203h1253q147 0 212 -53t65 -199v-618h133v-203h-373v870h-342v-667h131v-203h-368v870h-340v-667h131v-203h-502z" />
<glyph unicode="n" horiz-adv-x="1157" d="M49 0v203h129v667h-129v203h690q143 0 201.5 -61.5t58.5 -208.5v-600h129v-203h-376v870h-334v-667h133v-203h-502z" />
<glyph unicode="o" horiz-adv-x="1058" d="M106 281v524q0 150 66 212t225 62h285q74 0 128 -19.5t81 -44t42 -66.5t17 -72.5t2 -79.5v-482q0 -82 -7 -129t-30.5 -97t-80 -72.5t-150.5 -22.5h-287q-152 0 -221.5 61.5t-69.5 225.5zM352 197h355v680h-355v-680z" />
<glyph unicode="p" horiz-adv-x="1107" d="M29 870v203h686q156 0 223.5 -69.5t67.5 -229.5v-469q0 -176 -58.5 -240.5t-228.5 -64.5h-316v-446h-243v1316h-131zM403 203h359v667h-359v-667z" />
<glyph unicode="q" horiz-adv-x="1107" d="M102 285v514q0 139 65.5 206.5t225.5 67.5h680v-203h-127v-1316h-248v446h-350q-133 0 -189.5 73t-56.5 212zM348 203h350v667h-350v-667z" />
<glyph unicode="r" horiz-adv-x="868" d="M45 0v203h127v667h-127v203h526q135 0 209 -51t74 -215v-164h-227v227h-213v-667h127v-203h-496z" />
<glyph unicode="s" horiz-adv-x="964" d="M70 0v328h243v-133h342v245h-323q-150 0 -206 57.5t-56 192.5v150q0 47 9 80.5t36.5 72.5t90 59.5t156.5 20.5h521v-311h-228v121h-342v-234h322q137 0 200.5 -56t63.5 -192v-153q0 -133 -68.5 -190.5t-209.5 -57.5h-551z" />
<glyph unicode="t" horiz-adv-x="626" d="M31 870v203h131v330h248v-330h163v-203h-163v-667h163v-203h-157q-137 0 -195.5 61.5t-58.5 194.5v614h-131z" />
<glyph unicode="u" horiz-adv-x="1157" d="M33 870v203h373v-870h346v667h-129v203h372v-870h133v-203h-647q-182 0 -251.5 68.5t-69.5 242.5v559h-127z" />
<glyph unicode="v" horiz-adv-x="1009" d="M0 870v203h332l174 -887l190 887h316v-203h-121l-209 -870h-350l-203 870h-129z" />
<glyph unicode="w" horiz-adv-x="1542" d="M2 870v203h332l106 -866l209 866h250l211 -876l109 876h325v-203h-129l-141 -870h-313l-189 788l-188 -788h-314l-139 870h-129z" />
<glyph unicode="x" horiz-adv-x="964" d="M2 0v203h133l213 334l-213 333h-133v203h274l203 -350l211 350h262v-203h-131l-209 -319l224 -348h129v-203h-275l-211 365l-219 -365h-258z" />
<glyph unicode="y" horiz-adv-x="1058" d="M0 868v205h295l235 -616l240 616h291v-205h-133l-547 -1314h-248l279 663l-279 651h-133z" />
<glyph unicode="z" horiz-adv-x="964" d="M55 0v195l543 690h-315v-150h-228v338h828v-174l-555 -709h362v154h232v-344h-867z" />
<glyph unicode="{" horiz-adv-x="698" d="M61 524v138q94 18 133 91.5t39 245.5v256q0 203 122 291t298 88v-168q-27 0 -49 -4t-39.5 -7t-31 -13t-21.5 -16.5t-13 -24t-9.5 -23.5t-5.5 -27.5t-1 -28.5v-34v-33v-135q0 -223 -15 -311t-55 -129t-151 -86q111 -47 151 -88t55 -129t15 -311v-136v-31v-35q0 -7 1 -28.5 t5.5 -28t9.5 -23.5t13 -23.5t21.5 -16.5t31 -13t40 -7.5t48.5 -4.5v-168q-176 0 -298 88.5t-122 290.5v256q0 174 -39 247t-133 91z" />
<glyph unicode="|" horiz-adv-x="528" d="M145 -580v2317h240v-2317h-240z" />
<glyph unicode="}" horiz-adv-x="698" d="M51 -281q29 0 50.5 4.5t40 7.5t30.5 13t20.5 16.5t14.5 23.5t9 23.5t4 28t1 28.5v35v31v136q0 223 15.5 311t55.5 129t152 88q-113 45 -152.5 86t-55 129t-15.5 311v135v33v34q0 7 -1 28.5t-4 27.5t-9 23.5t-14.5 24t-20.5 16.5t-30.5 13t-40 7t-50.5 4v168 q178 0 299 -88t121 -291v-256q0 -172 39 -245.5t135 -91.5v-138q-96 -18 -135 -91t-39 -247v-256q0 -203 -121 -291t-299 -88v168z" />
<glyph unicode="~" d="M55 684q147 205 340 205q100 0 244 -74l80 -41q92 -45 168 -45q113 0 229 143l107 -204q-162 -188 -340 -189q-100 0 -238 72l-67 35q-104 53 -179 53q-66 0 -105.5 -29.5t-125.5 -128.5z" />
<glyph unicode="&#xa3;" horiz-adv-x="1206" d="M78 0v217h135v553h-135v127h135v377q0 215 91 287.5t314 72.5h435v-520h-254v303h-185q-104 0 -127.5 -41t-23.5 -182v-297h336v-127h-336v-553h467v303h244v-520h-1096z" />
<glyph unicode="&#xa4;" horiz-adv-x="1542" d="M55 250l189 180q-41 63 -59.5 100t-37 104.5t-18.5 151.5q0 82 17.5 150t35 102.5t56.5 100.5l-177 180l175 178l180 -180q63 37 100 55.5t107.5 36.5t154.5 18q78 0 145.5 -18t100.5 -35.5t100 -56.5l181 180l182 -180l-184 -176q37 -61 56 -97t36.5 -105t17.5 -148 q0 -90 -21.5 -168t-39 -110t-52.5 -85l185 -182l-182 -178l-179 182q-63 -37 -98 -54.5t-103.5 -35t-150.5 -17.5q-188 0 -356 109l-183 -180zM367 782q0 -176 119.5 -290.5t285.5 -114.5q172 0 289 114.5t117 292.5q2 182 -121 296t-285 114q-168 -4 -286.5 -116 t-118.5 -296z" />
<glyph unicode="&#xa6;" horiz-adv-x="579" d="M180 410h223v-820h-223v820zM180 758v819h223v-819h-223z" />
<glyph unicode="&#xa7;" horiz-adv-x="1107" d="M106 782q0 104 37 142.5t121 52.5q-96 18 -124.5 57t-28.5 146v202q0 152 68.5 202t230.5 50h356q123 0 173 -60.5t50 -189.5v-102h-244v150h-389v-361h389q70 0 119 -17.5t74 -40t37 -61.5t13 -61.5t1 -59.5l2 -380q0 -113 -30.5 -147t-137.5 -44q104 -10 135 -53 t31 -135v-289q0 -66 -20.5 -110t-45 -65.5t-70.5 -31.5t-65.5 -11t-64.5 -1h-367q-154 0 -199.5 66.5t-45.5 226.5v86h245v-176h389v393l-364 2q-141 2 -204.5 62.5t-65.5 199.5zM356 360h389v508h-389v-508z" />
<glyph unicode="&#xa9;" horiz-adv-x="1865" d="M98 815q0 354 245 594t587 240q354 0 592.5 -244t238.5 -590t-240.5 -587.5t-592.5 -241.5q-332 0 -581 235.5t-249 593.5zM268 817q0 -279 194.5 -471t471.5 -192q281 0 471 193.5t190 467.5t-189 470t-472 196q-281 0 -473.5 -196t-192.5 -468zM602 578v462 q0 141 46 206t173 65h361v-293h-164v151h-150q-66 0 -82 -20.5t-16 -93.5v-467q0 -41 1 -54.5t9 -33t28.5 -24.5t57.5 -5h162v172h158v-313h-365q-125 0 -172 60.5t-47 187.5z" />
<glyph unicode="&#xab;" horiz-adv-x="770" d="M-4 561l303 393l135 -86l-233 -307l235 -301l-137 -88zM322 561l305 393l135 -86l-234 -307l236 -301l-137 -88z" />
<glyph unicode="&#xac;" d="M0 561v238h1253v-799h-237v561h-1016z" />
<glyph unicode="&#xad;" horiz-adv-x="770" d="M68 479v174h645v-174h-645z" />
<glyph unicode="&#x2010;" horiz-adv-x="770" d="M68 479v174h645v-174h-645z" />
<glyph unicode="&#xae;" horiz-adv-x="1865" d="M98 815q0 354 245 594t587 240q354 0 592.5 -244t238.5 -590t-240.5 -587.5t-592.5 -241.5q-332 0 -581 235.5t-249 593.5zM268 817q0 -279 194.5 -471t471.5 -192q281 0 471 193.5t190 467.5t-189 470t-472 196q-281 0 -473.5 -196t-192.5 -468zM565 330v141h80v698h-80 v142h430q115 0 171.5 -46t56.5 -178v-98q0 -121 -86 -162q66 -16 84 -53t18 -106v-197h82v-141h-248v327q0 55 -24.5 73t-83.5 18h-154v-418h-246zM805 887h158q70 0 89 20.5t19 75.5v102q0 49 -21.5 73t-82.5 24h-162v-295z" />
<glyph unicode="&#xb0;" horiz-adv-x="819" d="M12 1352q0 166 117 282.5t285 114.5q166 0 281.5 -115.5t115.5 -281.5t-116.5 -283t-282.5 -117t-283 117t-117 283zM246 1351.5q0 -67.5 49 -116.5t117 -51q68 0 117 49t49 119q0 68 -48.5 117t-115.5 49q-70 0 -119 -49.5t-49 -117z" />
<glyph unicode="&#xb1;" d="M20 0v176h1211v-176h-1211zM20 735v176h517v547h176v-547h518v-176h-518v-485h-176v485h-517z" />
<glyph unicode="&#xb5;" horiz-adv-x="1157" d="M33 870v203h373v-870h346v667h-129v203h372v-870h133v-203h-722v-444h-246v1314h-127z" />
<glyph unicode="&#x3bc;" horiz-adv-x="1157" d="M33 870v203h373v-870h346v667h-129v203h372v-870h133v-203h-722v-444h-246v1314h-127z" />
<glyph unicode="&#xb6;" horiz-adv-x="1542" d="M199 1155q2 227 143 353t373 126h555v-151h-80v-1929h-166v1929h-303v-1929h-166v1153q-356 88 -356 448zM555 -446h166h-166z" />
<glyph unicode="&#xb7;" horiz-adv-x="436" d="M94 583.5q0 53.5 37 90.5t91 37t90 -38t36 -89q0 -53 -36 -91t-90 -38t-91 37.5t-37 91z" />
<glyph unicode="&#x22c5;" horiz-adv-x="436" d="M94 583.5q0 53.5 37 90.5t91 37t90 -38t36 -89q0 -53 -36 -91t-90 -38t-91 37.5t-37 91z" />
<glyph unicode="&#x2219;" horiz-adv-x="436" d="M94 583.5q0 53.5 37 90.5t91 37t90 -38t36 -89q0 -53 -36 -91t-90 -38t-91 37.5t-37 91z" />
<glyph unicode="&#xbb;" horiz-adv-x="770" d="M-2 260l235 301l-233 307l135 86l303 -393l-303 -389zM324 260l237 301l-233 307l135 86l303 -393l-303 -389z" />
<glyph unicode="&#xf7;" d="M88 553v238h1075v-238h-1075zM467 297q0 68 47 113t111.5 45t110.5 -46.5t46 -112t-46 -112.5t-110.5 -47t-111.5 46t-47 114zM467 1048.5q0 65.5 45 111.5t110.5 46t112.5 -45t47 -110q0 -68 -47 -115t-112.5 -47t-110.5 47t-45 112.5z" />
<glyph unicode="&#x192;" horiz-adv-x="903" d="M14 -444l29 217h170l135 1095h-133l25 203h133l37 299q6 63 20 110.5t39 75t46.5 45t64.5 24.5t72.5 8t84.5 1h119l-25 -217h-174l-41 -346h170l-24 -203h-172l-92 -749l-27 -254q-16 -172 -78.5 -240.5t-202.5 -68.5h-176z" />
<glyph unicode="&#x394;" horiz-adv-x="1556" d="M4 2l825 1606l723 -1606h-1548zM303 190h819l-385 844z" />
<glyph unicode="&#x2206;" horiz-adv-x="1556" d="M4 2l825 1606l723 -1606h-1548zM303 190h819l-385 844z" />
<glyph unicode="&#x401;" horiz-adv-x="1206" d="M51 0v217h133v1200h-133v217h1084v-479h-240v262h-451v-473h486v-223h-486v-504h467v301h238v-518h-1098zM283 1895.5q0 56.5 39.5 96.5t93.5 40q55 0 95 -40t40 -94q0 -57 -40 -97t-93 -40q-55 -4 -95 37t-40 97.5zM655 1896q-2 55 38 95.5t96.5 40.5t95.5 -40t39 -94 q0 -57 -39 -97t-94 -40q-55 -4 -95.5 37t-40.5 98z" />
<glyph unicode="&#x402;" horiz-adv-x="1515" d="M0 1178v456h1206v-456h-239v239h-236v-479h301q217 0 308.5 -97.5t91.5 -324.5v-602q0 -201 -90.5 -280.5t-262.5 -79.5h-188v217h90q92 0 128 14t50.5 64.5t14.5 177.5v450q0 160 -30 202t-167 42h-246v-504h135v-217h-530v217h137v1200h-233v-239h-240z" />
<glyph unicode="&#x403;" horiz-adv-x="1036" d="M47 0v217h135v1200h-135v217h989v-483h-237v266h-355v-1200h138v-217h-535zM420 1724l194 342h152l-195 -342h-151z" />
<glyph unicode="&#x404;" horiz-adv-x="1157" d="M104 406v780q0 229 76 338.5t291 109.5h594v-481h-252v264h-264q-119 0 -148.5 -40t-29.5 -165v-288h409v-213h-409v-287q0 -72 3 -97.5t17.5 -58t51 -42t104.5 -9.5h282v293h250v-510h-608q-207 0 -287 98.5t-80 307.5z" />
<glyph unicode="&#x405;" horiz-adv-x="1206" d="M111 0v467h245v-250h279q66 0 94.5 3t59 19.5t41 53.5t10.5 100v137q0 109 -31 139.5t-145 32.5l-207 3q-344 6 -344 350v243q0 336 352 336h600v-450h-246v233h-287q-47 0 -69.5 -3t-48 -19.5t-34.5 -53t-9 -96.5v-127q0 -104 40 -135t144 -31h180q197 0 282 -85 t85 -273v-223q0 -188 -86 -279.5t-281 -91.5h-624z" />
<glyph unicode="&#x406;" horiz-adv-x="626" d="M49 0v217h137v1200h-137v217h533v-217h-138v-1200h138v-217h-533z" />
<glyph unicode="&#x407;" horiz-adv-x="626" d="M-6 1895.5q0 56.5 39 96.5t94 40t95 -40t40 -94q0 -57 -40 -97t-93 -40q-57 -4 -96 37t-39 97.5zM49 0v217h137v1200h-137v217h533v-217h-138v-1200h138v-217h-533zM367 1896q-2 55 37.5 95.5t95 40.5t95.5 -40t40 -94q0 -57 -40 -97t-93 -40q-55 -4 -95 37t-40 98z" />
<glyph unicode="&#x408;" horiz-adv-x="770" d="M0 0v217h156q131 0 161.5 39t30.5 215v946h-137v217h537v-217h-142v-1057q0 -201 -89 -280.5t-263 -79.5h-254z" />
<glyph unicode="&#x409;" horiz-adv-x="1851" d="M0 0v217h135l266 1200h-135v217h987v-217h-137v-487h334q188 0 277.5 -83t89.5 -298v-213q0 -166 -76 -251t-301 -85h-580v1417h-203l-243 -1200q-25 -119 -76 -168t-166 -49h-172zM1116 217h275q106 0 140 31t34 129v141q0 117 -33 152t-131 35h-285v-488z" />
<glyph unicode="&#x40a;" horiz-adv-x="1894" d="M51 0v217h135v1200h-135v217h393v-704h467v704h394v-217h-138v-487h334q188 0 277.5 -83t89.5 -298v-213q0 -166 -76 -251t-301 -85h-580v705h-467v-705h-393zM1167 217h277q104 0 138 31t34 129v141q0 117 -33 152t-131 35h-285v-488z" />
<glyph unicode="&#x40b;" horiz-adv-x="1564" d="M0 1178v456h1206v-456h-239v239h-236v-479h301q217 0 308.5 -97.5t91.5 -324.5v-299h135v-217h-393v477q0 160 -30 202t-167 42h-246v-504h135v-217h-530v217h137v1200h-233v-239h-240z" />
<glyph unicode="&#x40c;" horiz-adv-x="1296" d="M49 0v217h133v1200h-133v217h387v-745l443 745h319v-217h-170l-317 -502h155q152 0 204 -76.5t52 -236.5v-385h133v-217h-389v569q0 86 -29.5 107.5t-148.5 21.5h-252v-698h-387zM537 1724l194 342h152l-195 -342h-151z" />
<glyph unicode="&#x40e;" horiz-adv-x="1206" d="M4 1417v217h301l297 -745l297 745h301v-217h-127l-561 -1417h-262l221 557l-338 860h-129zM270 2032h187q0 -78 23.5 -99.5t119.5 -21.5q57 0 86 17.5t33 38t4 65.5h188q0 -74 -8 -117t-37.5 -89t-96.5 -67.5t-174.5 -21.5t-175 20.5t-99 63.5t-41 88t-9.5 123z" />
<glyph unicode="&#x40f;" horiz-adv-x="1347" d="M51 0v217h135v1200h-135v217h393v-1417h467v1417h394v-217h-138v-1200h138v-217h-502v-336h-256v336h-496z" />
<glyph unicode="&#x410;" horiz-adv-x="1296" d="M0 0v217h129l340 1417h393l309 -1417h127v-217h-362l-102 520h-373l-107 -520h-354zM502 733h293l-140 733z" />
<glyph unicode="&#x411;" horiz-adv-x="1296" d="M51 0v217h135v1200h-135v217h1094v-479h-242v262h-459v-450h392q215 0 289.5 -77t74.5 -257v-244q0 -225 -88 -307t-309 -82h-752zM444 223h318q117 0 151.5 38t34.5 159v119q0 129 -31.5 166.5t-144.5 37.5h-328v-520z" />
<glyph unicode="&#x412;" horiz-adv-x="1296" d="M51 0v217h135v1200h-135v217h719q238 0 335 -79.5t97 -268.5v-104q0 -143 -44 -214t-171 -104q137 -57 175 -110.5t38 -202.5v-162q0 -225 -90 -307t-322 -82h-737zM444 217h314q119 0 153.5 37t34.5 160v121q0 145 -40 183t-158 38h-304v-539zM444 967h299 q119 0 160 31.5t41 148.5v104q0 96 -36 131t-158 35h-306v-450z" />
<glyph unicode="&#x413;" horiz-adv-x="1036" d="M47 0v217h135v1200h-135v217h989v-483h-237v266h-355v-1200h138v-217h-535z" />
<glyph unicode="&#x414;" horiz-adv-x="1347" d="M6 217h154l264 1200h-135v217h1016v-217h-138v-1200h176v-553h-258v336h-821v-336h-258v553zM436 217h475v1200h-229z" />
<glyph unicode="&#x415;" horiz-adv-x="1206" d="M51 0v217h133v1200h-133v217h1084v-479h-240v262h-451v-473h486v-223h-486v-504h467v301h238v-518h-1098z" />
<glyph unicode="&#x416;" horiz-adv-x="1824" d="M4 0v217h133v385q0 160 53.5 236.5t204.5 76.5h121l-283 502h-170v217h320l405 -745v745h256v-745l406 745h319v-217h-170l-282 -502h121q152 0 205 -76.5t53 -236.5v-385h133v-217h-391v569q0 86 -29 107.5t-147 21.5h-218v-698h-256v698h-217q-119 0 -147.5 -21.5 t-28.5 -107.5v-569h-391z" />
<glyph unicode="&#x417;" d="M111 0v467h245v-250h312q115 0 153.5 36t38.5 146v148q0 53 -4 80.5t-20.5 58.5t-53.5 44t-100 13h-254v211h262q109 0 139.5 38t30.5 143v131q0 102 -43 131.5t-139 29.5h-301v-243h-246v450h559q82 0 135.5 -5t113.5 -23.5t95 -54t58.5 -101.5t23.5 -162v-178 q0 -82 -30.5 -135t-64.5 -71.5t-89 -37.5q184 -23 184 -243v-283q0 -193 -92 -266.5t-287 -73.5h-626z" />
<glyph unicode="&#x418;" horiz-adv-x="1347" d="M51 0v217h135v1200h-135v217h393v-1083h5l485 1083h371v-217h-138v-1200h138v-217h-394v1083h-6l-485 -1083h-369z" />
<glyph unicode="&#x419;" horiz-adv-x="1347" d="M51 0v217h135v1200h-135v217h393v-1083h5l485 1083h371v-217h-138v-1200h138v-217h-394v1083h-6l-485 -1083h-369zM379 2032h186q0 -78 23.5 -99.5t118.5 -21.5q59 0 86.5 17.5t32.5 38t5 65.5h187q0 -74 -8.5 -117t-37 -89t-95 -67.5t-174 -21.5t-175 20.5t-99.5 63.5 t-41 88t-9 123z" />
<glyph unicode="&#x41a;" horiz-adv-x="1296" d="M49 0v217h133v1200h-133v217h387v-745l443 745h319v-217h-170l-317 -502h155q152 0 204 -76.5t52 -236.5v-385h133v-217h-389v569q0 86 -29.5 107.5t-148.5 21.5h-252v-698h-387z" />
<glyph unicode="&#x41b;" horiz-adv-x="1296" d="M0 0v217h135l266 1200h-135v217h987v-217h-137v-1200h137v-217h-393v1417h-203l-243 -1200q-25 -119 -76 -168t-166 -49h-172z" />
<glyph unicode="&#x41c;" horiz-adv-x="1748" d="M39 0v217h139v1200h-139v217h440l393 -886l400 886h440v-217h-135v-1200h135v-217h-383v1241h-6l-367 -788h-188l-338 788h-6v-1241h-385z" />
<glyph unicode="&#x41d;" horiz-adv-x="1347" d="M51 0v217h135v1200h-135v217h393v-704h467v704h394v-217h-138v-1200h138v-217h-394v705h-467v-705h-393z" />
<glyph unicode="&#x41e;" d="M111 467v754q0 227 78.5 323t291.5 96h277q94 0 153.5 -11t117.5 -50t85 -120t27 -212v-870q0 -209 -88 -296t-297 -87h-250q-109 0 -183.5 20.5t-116.5 53t-63.5 98t-26.5 128t-5 173.5zM373 455q0 -156 24.5 -197t141.5 -41h180q111 0 137.5 48t26.5 190v714 q0 168 -33 214.5t-164 46.5h-100q-139 0 -176 -41t-37 -222v-712z" />
<glyph unicode="&#x41f;" horiz-adv-x="1347" d="M51 0v217h135v1200h-135v217h1254v-217h-138v-1200h138v-217h-394v1417h-467v-1417h-393z" />
<glyph unicode="&#x420;" horiz-adv-x="1167" d="M49 0v217h133v1200h-133v217h715q223 0 299 -85t76 -251v-217q0 -215 -88 -298t-279 -83h-334v-483h140v-217h-529zM438 924h285q98 0 131 35.5t33 152.5v135q0 98 -34 128t-138 30h-277v-481z" />
<glyph unicode="&#x421;" horiz-adv-x="1157" d="M104 406v780q0 229 76 338.5t291 109.5h594v-481h-252v264h-264q-119 0 -148.5 -40t-29.5 -165v-788q0 -72 3 -97.5t17.5 -58t51 -42t104.5 -9.5h282v293h250v-510h-608q-207 0 -287 98.5t-80 307.5z" />
<glyph unicode="&#x422;" horiz-adv-x="1206" d="M0 1178v456h1206v-456h-239v239h-236v-1200h135v-217h-530v217h137v1200h-233v-239h-240z" />
<glyph unicode="&#x423;" horiz-adv-x="1206" d="M4 1417v217h301l297 -745l297 745h301v-217h-127l-561 -1417h-262l221 557l-338 860h-129z" />
<glyph unicode="&#x424;" horiz-adv-x="1527" d="M72 711v293q0 166 75.5 250.5t301.5 84.5h190v78h-137v217h532v-217h-137v-78h190q225 0 301 -85t76 -250v-293q0 -215 -89 -298t-277 -83h-201v-113h137v-217h-532v217h137v113h-201q-188 0 -277 83t-89 298zM324 739q0 -117 32.5 -151.5t130.5 -34.5h152v559h-141 q-104 0 -139 -30.5t-35 -129.5v-213zM897 553h152q98 0 130.5 35t32.5 151v213q0 98 -33.5 129t-140.5 31h-141v-559z" />
<glyph unicode="&#x425;" horiz-adv-x="1157" d="M0 0v217h131l305 612l-293 588h-127v217h312l252 -561l270 561h295v-217h-131l-293 -588l307 -612h127v-217h-305l-270 588l-283 -588h-297z" />
<glyph unicode="&#x426;" horiz-adv-x="1347" d="M51 0v217h135v1200h-135v217h393v-1417h467v1417h394v-217h-138v-1200h176v-553h-258v336h-1034z" />
<glyph unicode="&#x427;" horiz-adv-x="1296" d="M23 1417v217h393v-477q0 -160 30.5 -202t167.5 -42h246v721h393v-217h-137v-1200h137v-217h-532v217h139v479h-303q-217 0 -307 97.5t-90 324.5v299h-137z" />
<glyph unicode="&#x428;" horiz-adv-x="1931" d="M51 0v217h135v1200h-135v217h393v-1417h396v1417h258v-1417h397v1417h393v-217h-137v-1200h137v-217h-1837z" />
<glyph unicode="&#x429;" horiz-adv-x="1931" d="M51 0v217h135v1200h-135v217h393v-1417h396v1417h258v-1417h397v1417h393v-217h-137v-1200h174v-553h-256v336h-1618z" />
<glyph unicode="&#x42a;" horiz-adv-x="1460" d="M0 1178v456h870v-217h-137v-483h334q188 0 277.5 -83t89.5 -298v-217q0 -166 -76 -251t-301 -85h-713v217h133v1200h-237v-239h-240zM733 217h275q106 0 140 31t34 129v145q0 117 -33 153t-131 36h-285v-494z" />
<glyph unicode="&#x42b;" horiz-adv-x="1773" d="M49 0v217h133v1200h-133v217h529v-217h-140v-483h334q190 0 278.5 -83t88.5 -298v-217q0 -166 -76 -251t-299 -85h-715zM438 217h277q104 0 138 31t34 129v145q0 117 -33 153t-131 36h-285v-494zM1204 0v217h139v1200h-139v217h533v-217h-138v-1200h138v-217h-533z" />
<glyph unicode="&#x42c;" horiz-adv-x="1167" d="M49 0v217h133v1200h-133v217h529v-217h-140v-483h334q190 0 278.5 -83t88.5 -298v-217q0 -166 -76 -251t-299 -85h-715zM438 217h277q104 0 138 31t34 129v145q0 117 -33 153t-131 36h-285v-494z" />
<glyph unicode="&#x42d;" horiz-adv-x="1157" d="M86 0v510h250v-293h282q68 0 104 9.5t51 42t18.5 58t3.5 97.5v287h-410v213h410v288q0 125 -30 165t-149 40h-264v-264h-252v481h594q213 0 290 -109.5t77 -338.5v-780q0 -209 -80 -307.5t-287 -98.5h-608z" />
<glyph unicode="&#x42e;" horiz-adv-x="1779" d="M51 0v217h135v1200h-135v217h393v-704h203v291q0 227 79 323t292 96h278q92 0 151.5 -11t118 -50t86 -120t27.5 -212v-870q0 -209 -89 -296t-296 -87h-250q-111 0 -185.5 20.5t-116.5 53t-63.5 98t-26.5 128t-5 173.5v238h-203v-705h-393zM911 455q0 -156 25 -197 t141 -41h178q111 0 137.5 48t26.5 190v714q0 168 -32.5 214.5t-163.5 46.5h-101q-139 0 -175 -41t-36 -222v-712z" />
<glyph unicode="&#x42f;" horiz-adv-x="1323" d="M23 0v217h139v338q0 125 32.5 184.5t155.5 81.5q-90 43 -127 102.5t-37 178.5v164q0 215 95.5 291.5t281.5 76.5h721v-217h-135v-1200h135v-217h-395v705h-275q-111 0 -151.5 -34t-40.5 -132v-539h-399zM446 1090q0 -98 32 -133t149 -33l262 4v489h-268 q-102 0 -138.5 -40t-36.5 -124v-163z" />
<glyph unicode="&#x430;" horiz-adv-x="1058" d="M66 270q0 86 6 132.5t30.5 99.5t83 76.5t152.5 23.5h324v268h-349v-159h-231v116q0 45 7 79t30.5 78t82 66.5t146.5 22.5h318q236 0 235 -252v-618h127v-203h-633q-168 0 -248.5 52t-80.5 218zM313 190h349v224h-349v-224z" />
<glyph unicode="&#x431;" horiz-adv-x="1058" d="M106 281v780q0 84 30 128t104 95l434 287v63h248v-73q0 -49 -45 -82l-461 -308q-43 -27 -53.5 -58.5t-10.5 -104.5q31 72 144 71h186q74 0 128 -19.5t81 -44t42 -66.5t17 -72.5t2 -79.5v-482q0 -82 -7 -129t-30.5 -97t-80 -72.5t-150.5 -22.5h-287q-152 0 -221.5 61.5 t-69.5 225.5zM352 197h355v680h-355v-680z" />
<glyph unicode="&#x432;" horiz-adv-x="1044" d="M47 0v203h131v667h-131v203h633q170 0 228.5 -64.5t58.5 -230.5q0 -106 -47.5 -160.5t-114.5 -62.5v-4q84 -12 126 -64.5t42 -185.5v-22q0 -162 -78 -220.5t-242 -58.5h-606zM418 190h303v261h-303v-261zM418 639h303v244h-303v-244z" />
<glyph unicode="&#x433;" horiz-adv-x="880" d="M43 0v203h129v667h-129v203h840v-411h-226v208h-243v-667h143v-203h-514z" />
<glyph unicode="&#x434;" horiz-adv-x="1107" d="M0 203h131l148 667h-132v203h932v-203h-131v-667h162v-486h-242v283h-628v-283h-240v486zM365 203h342v667h-201z" />
<glyph unicode="&#x435;" horiz-adv-x="1009" d="M102 301v502q0 160 68 218t213 58h270q47 0 78 -3t72 -16t64.5 -38t43 -73t19.5 -115v-371h-590v-266h358v155h232v-125q0 -45 -8.5 -78.5t-33 -73.5t-81.5 -60.5t-143 -20.5h-293q-160 0 -214.5 70.5t-54.5 236.5zM340 643h358v236h-358v-236z" />
<glyph unicode="&#x436;" horiz-adv-x="1476" d="M0 0v203h131v225q0 109 48 156t155 47h31l-175 239h-147v203h274l297 -461h4v461h242v-461h4l297 461h275v-203h-150l-172 -239h31q106 0 154.5 -47t48.5 -156v-225h131v-203h-369v438h-250v-438h-242v438h-249v-438h-369z" />
<glyph unicode="&#x437;" horiz-adv-x="964" d="M90 0v367h234v-164h311v248h-287v188h287v231h-311v-153h-234v356h504q170 0 228.5 -64.5t58.5 -230.5q0 -106 -49.5 -160.5t-118.5 -62.5v-4q84 -12 126 -64.5t42 -185.5v-22q0 -162 -79 -220.5t-241 -58.5h-471z" />
<glyph unicode="&#x438;" horiz-adv-x="1167" d="M47 0v203h131v667h-131v203h371v-637h4l328 637h374v-203h-129v-667h129v-203h-370v643h-4l-328 -643h-375z" />
<glyph unicode="&#x439;" horiz-adv-x="1167" d="M47 0v203h131v667h-131v203h371v-637h4l328 637h374v-203h-129v-667h129v-203h-370v643h-4l-328 -643h-375zM285 1538h164q0 -80 25.5 -105.5t127.5 -25.5q63 0 95 20.5t36 42t4 68.5h164q0 -70 -8 -112t-35 -90t-92.5 -69.5t-167.5 -21.5q-197 0 -255 70.5t-58 222.5z " />
<glyph unicode="&#x43a;" horiz-adv-x="1073" d="M45 0v203h131v667h-131v203h371v-461h4l319 461h277v-203h-150l-172 -239h29q109 0 157 -47t48 -156v-225h129v-203h-369v438h-272v-438h-371z" />
<glyph unicode="&#x43b;" horiz-adv-x="1060" d="M0 0v203h131l148 667h-132v203h873v-203h-131v-667h131v-203h-371v870h-143l-156 -727q-18 -80 -53 -111.5t-109 -31.5h-188z" />
<glyph unicode="&#x43c;" horiz-adv-x="1347" d="M47 0v203h131v667h-131v203h387l244 -520h4l242 520h389v-203h-131v-667h131v-203h-365v639h-4l-199 -420h-131l-198 420h-4v-639h-365z" />
<glyph unicode="&#x43d;" horiz-adv-x="1167" d="M47 0v203h131v667h-131v203h371v-426h336v426h370v-203h-129v-667h129v-203h-370v444h-336v-444h-371z" />
<glyph unicode="&#x43e;" horiz-adv-x="1058" d="M106 281v524q0 150 66 212t225 62h285q74 0 128 -19.5t81 -44t42 -66.5t17 -72.5t2 -79.5v-482q0 -82 -7 -129t-30.5 -97t-80 -72.5t-150.5 -22.5h-287q-152 0 -221.5 61.5t-69.5 225.5zM352 197h355v680h-355v-680z" />
<glyph unicode="&#x43f;" horiz-adv-x="1167" d="M47 0v203h131v667h-131v203h1077v-203h-129v-667h129v-203h-370v870h-336v-870h-371z" />
<glyph unicode="&#x440;" horiz-adv-x="1107" d="M29 870v203h686q156 0 223.5 -69.5t67.5 -229.5v-469q0 -176 -58.5 -240.5t-228.5 -64.5h-316v-446h-243v1316h-131zM403 203h359v667h-359v-667z" />
<glyph unicode="&#x441;" horiz-adv-x="964" d="M100 279v499q0 156 61.5 225.5t225.5 69.5h502v-379h-234v176h-309v-667h309v186h234v-389h-469q-164 0 -242 58.5t-78 220.5z" />
<glyph unicode="&#x442;" horiz-adv-x="1009" d="M0 662v411h1012v-411h-226v208h-159v-667h143v-203h-526v203h141v667h-162v-208h-223z" />
<glyph unicode="&#x443;" horiz-adv-x="1058" d="M0 868v205h295l235 -616l240 616h291v-205h-133l-547 -1314h-248l279 663l-279 651h-133z" />
<glyph unicode="&#x444;" horiz-adv-x="1492" d="M102 305v469q0 160 68 229.5t225 69.5h228v359h-127v202h374v-561h230q156 0 223.5 -69.5t67.5 -229.5v-469q0 -176 -58.5 -240.5t-228.5 -64.5h-234v-446h-247v446h-234q-170 0 -228.5 64.5t-58.5 240.5zM348 203h275v667h-275v-667zM870 203h277v667h-277v-667z" />
<glyph unicode="&#x445;" horiz-adv-x="964" d="M2 0v203h133l213 334l-213 333h-133v203h274l203 -350l211 350h262v-203h-131l-209 -319l224 -348h129v-203h-275l-211 365l-219 -365h-258z" />
<glyph unicode="&#x446;" horiz-adv-x="1167" d="M47 0v203h131v667h-131v203h371v-870h336v870h370v-203h-129v-667h160v-486h-240v283h-868z" />
<glyph unicode="&#x447;" horiz-adv-x="1058" d="M4 870v203h373v-438h276v438h371v-203h-129v-667h129v-203h-502v203h131v229h-196q-180 0 -251 68.5t-71 242.5v127h-131z" />
<glyph unicode="&#x448;" horiz-adv-x="1624" d="M47 0v203h131v667h-131v203h371v-870h278v870h240v-870h278v870h371v-203h-131v-667h131v-203h-1538z" />
<glyph unicode="&#x449;" horiz-adv-x="1624" d="M47 0v203h131v667h-131v203h371v-870h278v870h240v-870h278v870h371v-203h-131v-667h162v-486h-242v283h-1327z" />
<glyph unicode="&#x44a;" horiz-adv-x="1206" d="M0 662v411h745v-203h-131v-213h275q145 0 212.5 -58t67.5 -216v-76q0 -164 -53 -235.5t-215 -71.5h-657v203h129v667h-150v-208h-223zM614 203h310v252h-310v-252z" />
<glyph unicode="&#x44b;" horiz-adv-x="1536" d="M47 0v203h131v667h-131v203h502v-203h-131v-213h252q145 0 212.5 -58t67.5 -216v-76q0 -164 -53 -235.5t-215 -71.5h-635zM418 203h287v252h-287v-252zM997 0v203h131v667h-131v203h502v-203h-131v-667h131v-203h-502z" />
<glyph unicode="&#x44c;" horiz-adv-x="1009" d="M47 0v203h131v667h-131v203h502v-203h-131v-213h276q143 0 211 -58t68 -216v-76q0 -164 -53.5 -235.5t-214.5 -71.5h-658zM418 203h311v252h-311v-252z" />
<glyph unicode="&#x44d;" horiz-adv-x="964" d="M90 0v367h234v-164h311v248h-287v188h287v231h-311v-153h-234v356h504q162 0 224.5 -69.5t62.5 -225.5v-499q0 -162 -79 -220.5t-241 -58.5h-471z" />
<glyph unicode="&#x44e;" horiz-adv-x="1503" d="M47 0v203h131v667h-131v203h371v-426h155v158q0 150 66 212t225 62h285q74 0 128 -19.5t80.5 -44t42 -66.5t17.5 -72.5t2 -79.5v-482q0 -82 -7 -129t-30.5 -97t-80 -72.5t-150.5 -22.5h-287q-152 0 -221.5 61.5t-69.5 225.5v163h-155v-444h-371zM819 197h355v680h-355 v-680z" />
<glyph unicode="&#x44f;" horiz-adv-x="1058" d="M10 0v203h123v149q0 154 133 193v4q-63 37 -89.5 89t-26.5 148q0 147 57 217t211 70h606v-203h-129v-667h129v-203h-371v436h-280v-436h-363zM397 635h256v244h-256v-244z" />
<glyph unicode="&#x451;" horiz-adv-x="1009" d="M100 299v463q0 154 47 221q39 55 91.5 70.5t140.5 15.5h268q43 0 74 -2t72 -16.5t66.5 -39t43 -70.5t17.5 -114v-366h-582v-264h356v151h226v-125q0 -43 -8.5 -76.5t-32 -72.5t-80 -59.5t-144.5 -20.5h-286q-152 0 -215 76q-35 43 -44.5 87t-9.5 142zM211 1364 q0 53 39 93t94 42q53 0 93 -40t42 -95q0 -53 -40 -93t-95 -40t-94 40t-39 93zM338 635h356v235h-356v-235zM582 1364q-2 53 36.5 93t96.5 42q53 0 93 -40t40 -95q0 -53 -40 -93t-93 -40t-93 40t-40 93z" />
<glyph unicode="&#x452;" horiz-adv-x="1107" d="M39 0v203h131v835h-127v207h127v187h-131v202h375v-389h350v-207h-350v-198h280q160 0 231.5 -53.5t71.5 -213.5v-757q0 -156 -71.5 -209t-218.5 -53h-136v200h181v883h-338v-434h121v-203h-496z" />
<glyph unicode="&#x453;" horiz-adv-x="880" d="M43 0v203h129v667h-129v203h840v-411h-226v208h-243v-667h143v-203h-514zM324 1198l200 336h148l-193 -336h-155z" />
<glyph unicode="&#x454;" horiz-adv-x="964" d="M117 279v499q0 156 61.5 225.5t224.5 69.5h502v-356h-233v153h-310v-231h287v-188h-287v-248h310v164h233v-367h-469q-164 0 -241.5 58.5t-77.5 220.5z" />
<glyph unicode="&#x455;" horiz-adv-x="964" d="M70 0v328h243v-133h342v245h-323q-150 0 -206 57.5t-56 192.5v150q0 47 9 80.5t36.5 72.5t90 59.5t156.5 20.5h521v-311h-228v121h-342v-234h322q137 0 200.5 -56t63.5 -192v-153q0 -133 -68.5 -190.5t-209.5 -57.5h-551z" />
<glyph unicode="&#x456;" horiz-adv-x="577" d="M45 0v203h131v667h-131v203h371v-870h133v-203h-504zM166 1370q0 53 37 92t91 39t94 -39t40 -90q0 -53 -39 -93t-92 -40t-92 39t-39 92z" />
<glyph unicode="&#x457;" horiz-adv-x="577" d="M-31 1364q0 53 40 93t93 42q53 0 93.5 -40t42.5 -95q0 -53 -39 -93t-97 -40q-53 0 -93 40t-40 93zM45 0v203h131v661h-131v201h369v-862h131v-203h-500zM338 1364q0 53 40 93t95 42q55 0 94 -40t39 -95q0 -53 -39 -93t-96 -40q-53 0 -93 40t-40 93z" />
<glyph unicode="&#x458;" horiz-adv-x="528" d="M-18 -246h180v1114h-129v205h373v-1257q0 -156 -71 -209t-218 -53h-135v200zM154 1377.5q0 54.5 37.5 92t91 37.5t93.5 -37.5t40 -92t-39 -92.5t-92.5 -38t-92 38t-38.5 92.5z" />
<glyph unicode="&#x459;" horiz-adv-x="1476" d="M-2 0v203h131l147 667h-131v203h873v-203h-131v-223h276q143 0 212 -58.5t69 -217.5v-64q0 -164 -54.5 -235.5t-215.5 -71.5h-527v870h-143l-156 -727q-18 -80 -53 -111.5t-109 -31.5h-188zM887 203h311v241h-311v-241z" />
<glyph unicode="&#x45a;" horiz-adv-x="1593" d="M47 0v203h131v667h-131v203h371v-426h336v426h370v-203h-129v-223h275q145 0 212.5 -58.5t67.5 -217.5v-64q0 -164 -53 -235.5t-215 -71.5h-528v444h-336v-444h-371zM995 203h310v241h-310v-241z" />
<glyph unicode="&#x45b;" horiz-adv-x="1157" d="M39 0v203h131v835h-127v207h127v187h-131v202h375v-389h350v-207h-350v-198h280q160 0 231.5 -53.5t71.5 -213.5v-370h127v-203h-372v637h-338v-434h121v-203h-496z" />
<glyph unicode="&#x45c;" horiz-adv-x="1073" d="M45 0v203h131v667h-131v203h371v-461h4l319 461h277v-203h-150l-172 -239h29q109 0 157 -47t48 -156v-225h129v-203h-369v438h-272v-438h-371zM440 1198l203 336h145l-192 -336h-156z" />
<glyph unicode="&#x45e;" horiz-adv-x="1058" d="M0 868v205h295l235 -616l240 616h291v-205h-133l-547 -1314h-248l279 663l-279 651h-133zM229 1538h164q0 -80 25.5 -105.5t128.5 -25.5q63 0 94 20.5t36 42t5 68.5h164q0 -70 -8.5 -112t-36 -90t-92 -69.5t-168.5 -21.5q-195 0 -253.5 70.5t-58.5 222.5z" />
<glyph unicode="&#x45f;" horiz-adv-x="1167" d="M47 0v203h131v667h-131v203h371v-870h336v870h370v-203h-129v-667h129v-203h-417v-283h-240v283h-420z" />
<glyph unicode="&#x490;" horiz-adv-x="1036" d="M47 0v217h135v1200h-135v217h752v267h237v-484h-592v-1200h138v-217h-535z" />
<glyph unicode="&#x491;" horiz-adv-x="880" d="M43 0v203h129v667h-129v203h614v211h226v-414h-469v-667h143v-203h-514z" />
<glyph unicode="&#x2000;" horiz-adv-x="1069" />
<glyph unicode="&#x2001;" horiz-adv-x="2140" />
<glyph unicode="&#x2002;" horiz-adv-x="1069" />
<glyph unicode="&#x2003;" horiz-adv-x="2140" />
<glyph unicode="&#x2004;" horiz-adv-x="712" />
<glyph unicode="&#x2005;" horiz-adv-x="534" />
<glyph unicode="&#x2006;" horiz-adv-x="356" />
<glyph unicode="&#x2007;" horiz-adv-x="356" />
<glyph unicode="&#x2008;" horiz-adv-x="266" />
<glyph unicode="&#x2009;" horiz-adv-x="428" />
<glyph unicode="&#x200a;" horiz-adv-x="118" />
<glyph unicode="&#x2011;" horiz-adv-x="770" d="M68 479v174h645v-174h-645z" />
<glyph unicode="&#x2012;" horiz-adv-x="770" d="M68 479v174h645v-174h-645z" />
<glyph unicode="&#x2013;" horiz-adv-x="1167" d="M0 479v174h1167v-174h-1167z" />
<glyph unicode="&#x2014;" horiz-adv-x="2334" d="M0 479v174h2335v-174h-2335z" />
<glyph unicode="&#x2018;" horiz-adv-x="430" d="M-14 1085l241 549h217l-311 -549h-147z" />
<glyph unicode="&#x2019;" horiz-adv-x="430" d="M-12 1085l311 549h147l-241 -549h-217z" />
<glyph unicode="&#x201a;" horiz-adv-x="430" d="M-10 -313l241 549h218l-312 -549h-147z" />
<glyph unicode="&#x201c;" horiz-adv-x="722" d="M-18 1085l239 549h217l-309 -549h-147zM270 1085l242 549h217l-311 -549h-148z" />
<glyph unicode="&#x201d;" horiz-adv-x="722" d="M-20 1085l309 549h147l-239 -549h-217zM268 1085l312 549h147l-242 -549h-217z" />
<glyph unicode="&#x201e;" horiz-adv-x="722" d="M-10 -313l241 549h218l-312 -549h-147zM281 -313l239 549h217l-309 -549h-147z" />
<glyph unicode="&#x2020;" horiz-adv-x="1206" d="M43 856v217h438v563h248v-563h436v-217h-436v-1294h-248v1294h-438z" />
<glyph unicode="&#x2021;" horiz-adv-x="1206" d="M43 133v217h438v506h-438v217h438v563h248v-563h436v-217h-436v-506h436v-217h-436v-571h-248v571h-438z" />
<glyph unicode="&#x2022;" horiz-adv-x="770" d="M55 817q0 137 97.5 233.5t234.5 94.5q135 0 231.5 -97.5t96.5 -232.5t-96.5 -231.5t-233.5 -96.5t-233.5 97.5t-96.5 232.5z" />
<glyph unicode="&#x2026;" horiz-adv-x="2314" d="M229 142.5q0 64.5 45 111.5t111 47t113 -45t47 -110.5t-46 -112.5t-111.5 -47t-112 46t-46.5 110.5zM999 142.5q0 64.5 45.5 111.5t111 47t112.5 -45t47 -110.5t-46 -112.5t-110.5 -47t-112 46t-47.5 110.5zM1772 143q-2 63 44 110.5t109 47.5q70 0 116 -45t46 -111 q2 -66 -44 -112.5t-111.5 -46.5t-112.5 45.5t-47 111.5z" />
<glyph unicode="&#x202f;" horiz-adv-x="428" />
<glyph unicode="&#x2030;" horiz-adv-x="2605" d="M57 860v463q0 174 49.5 248t221.5 74h133q80 0 134 -21.5t78.5 -62.5t33 -78t8.5 -92v-523q0 -152 -55.5 -208t-208.5 -56h-148q-119 0 -182.5 51t-63.5 205zM231 889q0 -90 17.5 -113.5t83.5 -23.5h88q82 0 101.5 25.5t19.5 117.5v479q0 74 -23.5 98.5t-81.5 24.5h-71 q-80 0 -107 -23.5t-27 -105.5v-479zM446 0l775 1634h165l-776 -1634h-164zM1120 246v465q0 172 49.5 245.5t219.5 73.5h135q82 0 136 -21.5t77.5 -62.5t32 -78t8.5 -90v-524q0 -152 -55.5 -208t-206.5 -56h-150q-119 0 -182.5 52t-63.5 204zM1294 276q0 -92 17.5 -115.5 t83.5 -23.5h88q82 0 101.5 25.5t19.5 118.5v481q0 72 -24 96.5t-79 24.5h-74q-80 0 -106.5 -23.5t-26.5 -105.5v-478zM1890 246v465q0 172 49.5 245.5t219.5 73.5h137q82 0 135 -21.5t76.5 -62.5t32 -78t8.5 -90v-524q0 -152 -55.5 -208t-206.5 -56h-150q-119 0 -182.5 52 t-63.5 204zM2064 276q0 -92 17.5 -115.5t83.5 -23.5h88q82 0 101.5 25.5t19.5 118.5v481q0 72 -22.5 96.5t-80.5 24.5h-73q-80 0 -107 -23.5t-27 -105.5v-478z" />
<glyph unicode="&#x2039;" horiz-adv-x="442" d="M-4 561l303 393l135 -86l-233 -307l235 -301l-137 -88z" />
<glyph unicode="&#x203a;" horiz-adv-x="442" d="M-2 260l235 301l-233 307l135 86l303 -393l-303 -389z" />
<glyph unicode="&#x205f;" horiz-adv-x="534" />
<glyph unicode="&#x2116;" horiz-adv-x="2037" d="M49 0v217h135v1186h-135v231h418l582 -1220v1220h368v-217h-137v-1417h-244l-622 1251v-1251h-365zM1411 0v135h535v-135h-535zM1411 455v327q0 102 39 145.5t141 43.5h183q61 0 99 -15.5t51 -47t17.5 -54.5t4.5 -63v-293q0 -51 -4.5 -82t-19.5 -65t-49 -49t-89 -15h-176 q-43 0 -72 5t-60.5 18.5t-48 50.5t-16.5 94zM1569 422h215v416h-215v-416z" />
<glyph unicode="&#x2122;" horiz-adv-x="1785" d="M61 1419q6 98 7 217q223 -4 331 -4q166 0 330 6q2 -127 8 -217l-90 -2q-27 82 -46 101.5t-66 19.5h-52v-526q0 -31 13.5 -40t44.5 -11l45 -2v-95q-113 4 -187 4q-70 0 -186 -4v95h37q45 0 55 15t10 81v483h-51q-51 0 -68.5 -19.5t-43.5 -99.5zM774 866v88l33 9 q37 6 45 21t8 73v471l-8 4q-29 14 -66 12v92q43 -2 120 -2t114 2l219 -534l219 534q115 -2 240 0v-92h-19q-51 0 -61 -18.5t-10 -91.5v-420q0 -29 10 -39t47 -14l18 -5v-90q-102 4 -155 4t-156 -4v90h14q45 0 53.5 15.5t8.5 85.5v293l-201 -482h-67l-201 486v-293 q0 -70 9 -83t61 -17l20 -5v-90q-49 2 -141 2q-101 0 -154 -2z" />
<glyph unicode="&#x221a;" d="M-43 1116l430 191l414 -777l282 1610l174 -20l-380 -2208l-613 1155l-225 -98z" />
<glyph unicode="&#x221e;" horiz-adv-x="1957" d="M143 621q0 160 114 277.5t275 117.5q111 0 198 -49t247 -189q147 139 237.5 188.5t200.5 49.5q162 0 275.5 -118t113.5 -277q0 -147 -107.5 -272.5t-260.5 -125.5q-225 -2 -463 234q-223 -229 -457 -234q-156 0 -264.5 124t-108.5 274zM377 606q0 -68 51 -110.5 t117 -42.5q76 0 125 32.5t143 130.5q-86 78 -115.5 100.5t-72.5 43t-93 20.5q-72 0 -113.5 -57.5t-41.5 -116.5zM1135 616q98 -98 149 -130.5t131 -32.5q59 0 107.5 44t48.5 109q0 61 -42 117.5t-114 56.5q-18 0 -34.5 -1t-33 -6t-26.5 -8t-26.5 -14.5t-24.5 -16.5 t-29.5 -22.5t-31 -25.5t-35 -33t-39.5 -37z" />
<glyph unicode="&#x2248;" d="M-18 410q186 203 368 202q45 0 121 -16l352 -82q25 -4 43 -4q49 0 113 20q66 25 125 101l162 -90q-72 -100 -179.5 -151.5t-218.5 -51.5q-45 0 -96 12l-350 82q-45 12 -92 12q-49 0 -80 -15t-56.5 -45t-29.5 -34zM-18 700q184 199 368 199q59 0 121 -14l352 -80 q29 -4 49 -4q51 0 107 18q59 25 125 101l162 -86q-72 -102 -179.5 -153.5t-218.5 -51.5q-45 0 -96 10l-350 84q-55 14 -94 14q-47 0 -74 -13t-56.5 -51t-33.5 -42z" />
<glyph unicode="&#x2260;" horiz-adv-x="1865" d="M98 815q0 354 245 594t587 240q354 0 592.5 -244t238.5 -590t-240.5 -587.5t-592.5 -241.5q-332 0 -581 235.5t-249 593.5zM268 817q0 -279 194.5 -471t471.5 -192q281 0 471 193.5t190 467.5t-189 470t-472 196q-281 0 -473.5 -196t-192.5 -468zM637 330v141h78v698h-78 v142h426q135 0 181 -52.5t46 -152.5v-127q0 -133 -53 -183.5t-168 -50.5h-190v-274h77v-141h-319zM870 885h170q59 0 79 21.5t20 90.5v84q0 57 -19.5 73.5t-83.5 16.5h-166v-286z" />
<glyph unicode="&#x2264;" d="M12 252v235l1217 -561v-237zM12 754v229l1217 565v-237l-938 -443l938 -440v-238z" />
<glyph unicode="&#x2265;" d="M20 -74l1217 561v-235l-1217 -563v237zM20 190v238l941 440l-941 443v237l1217 -565v-229z" />
<glyph unicode="&#xe000;" horiz-adv-x="1075" d="M0 1075h1075v-1075h-1075v1075z" />
<glyph horiz-adv-x="1167" />
<glyph horiz-adv-x="770" d="M68 479v174h645v-174h-645z" />
</font>
</defs>
</svg>
